<mxfile host="app.diagrams.net" modified="2022-02-07T20:46:08.106Z" agent="5.0 (Windows NT 10.0; Win64; x64) AppleWebKit/537.36 (KHTML, like Gecko) Chrome/97.0.4692.99 Safari/537.36" etag="vxlQ4MmOiJuk79FeWiZC" version="16.4.11" type="github">
  <diagram id="3Sqy9SZdP2dRtBhYugRX" name="Page-1">
    <mxGraphModel dx="1955" dy="867" grid="1" gridSize="10" guides="1" tooltips="1" connect="1" arrows="1" fold="1" page="1" pageScale="1" pageWidth="850" pageHeight="1100" math="0" shadow="0">
      <root>
        <mxCell id="0" />
        <mxCell id="1" parent="0" />
        <mxCell id="wSd2zqa3R8kVobw-JEVB-3" value="&lt;font style=&quot;font-size: 20px&quot;&gt;Occupational &lt;br&gt;Titles&lt;/font&gt;" style="shape=image;html=1;verticalAlign=top;verticalLabelPosition=bottom;labelBackgroundColor=#ffffff;imageAspect=0;aspect=fixed;image=https://cdn0.iconfinder.com/data/icons/job-seeker/256/rotation_job_seeker_employee_unemployee_work-128.png;sketch=0;" vertex="1" parent="1">
          <mxGeometry x="45" y="115" width="120" height="120" as="geometry" />
        </mxCell>
        <mxCell id="wSd2zqa3R8kVobw-JEVB-5" value="Stem Text" style="endArrow=classic;html=1;rounded=0;fontSize=20;" edge="1" parent="1">
          <mxGeometry width="50" height="50" relative="1" as="geometry">
            <mxPoint x="180" y="200" as="sourcePoint" />
            <mxPoint x="330" y="200" as="targetPoint" />
          </mxGeometry>
        </mxCell>
        <mxCell id="wSd2zqa3R8kVobw-JEVB-9" value="Use Word &lt;br&gt;Embeddings" style="endArrow=classic;html=1;rounded=0;fontSize=20;" edge="1" parent="1">
          <mxGeometry width="50" height="50" relative="1" as="geometry">
            <mxPoint x="170" y="420" as="sourcePoint" />
            <mxPoint x="330" y="420" as="targetPoint" />
          </mxGeometry>
        </mxCell>
        <mxCell id="wSd2zqa3R8kVobw-JEVB-10" value="Stem Text&lt;br&gt;&amp;amp; Cluster &lt;br&gt;Occupations" style="endArrow=classic;html=1;rounded=0;fontSize=20;" edge="1" parent="1">
          <mxGeometry width="50" height="50" relative="1" as="geometry">
            <mxPoint x="178" y="645" as="sourcePoint" />
            <mxPoint x="330" y="645" as="targetPoint" />
          </mxGeometry>
        </mxCell>
        <mxCell id="wSd2zqa3R8kVobw-JEVB-11" value="Occupational&#xa;Descriptions" style="shape=image;verticalLabelPosition=bottom;labelBackgroundColor=none;verticalAlign=top;aspect=fixed;imageAspect=0;image=data:image/svg+xml,PHN2ZyB4bWxucz0iaHR0cDovL3d3dy53My5vcmcvMjAwMC9zdmciIGRhdGEtbmFtZT0iTGF5ZXIgMSIgaWQ9IkxheWVyXzEiIHZpZXdCb3g9IjAgMCAyNTYgMjU2Ij48ZGVmcz48c3R5bGU+LmNscy0xe2ZpbGw6I2VmZmFmZTt9LmNscy0ye2ZpbGw6IzQwYmRmZjt9LmNscy0ze2ZpbGw6I2ZkMDt9LmNscy00e2ZpbGw6I2VmYzgwMzt9LmNscy01e2ZpbGw6I2U0ZWJlZDt9LmNscy02e2ZpbGw6IzIxOTdmNzt9LmNscy03e2ZpbGw6IzI2MzIzODt9PC9zdHlsZT48L2RlZnM+PHRpdGxlLz48cGF0aCBjbGFzcz0iY2xzLTEiIGQ9Ik04OS41NCw1OC42OGgwYTQuNDIsNC40MiwwLDEsMC0uNywwWiIvPjxwYXRoIGNsYXNzPSJjbHMtMiIgZD0iTTczLjg4LDcxLjVINzZWNzAuMjhjMC00LjIsMi4xLTguMTIsNi43OC0xMC41NmE4LjU0LDguNTQsMCwwLDEtMi01LjQyLDguNDEsOC40MSwwLDAsMSwxNi44MywwLDguNTcsOC41NywwLDAsMS0yLDUuNDJjNC42OSwyLjQ1LDYuNzgsNi4zOSw2Ljc4LDEwLjU2VjcxLjVoMi4xVjQwLjg4SDczLjg4WiIvPjxwYXRoIGNsYXNzPSJjbHMtMyIgZD0iTTE4Mi4xMiwyMjFWMTc5LjUxbC0uNTkuMWExNC45MywxNC45MywwLDAsMC0xMi4zNywxNC43NFYyMDZhMiwyLDAsMCwxLTIsMmgtMzF2MTNhMjMsMjMsMCwwLDAsNDYsMFoiLz48cGF0aCBjbGFzcz0iY2xzLTQiIGQ9Ik0xODEuNTMsMTc5LjYxYTE1LDE1LDAsMCwwLTQuNDEsMS41MlYyMjFhMjMsMjMsMCwwLDEtMjAuNSwyMi44NkEyMywyMywwLDAsMCwxODIuMTIsMjIxVjE3OS41MVoiLz48cGF0aCBjbGFzcz0iY2xzLTEiIGQ9Ik05MC44LDYyLjY4Yy0zLjEsMC0zLjA3LDAtMy4yMiwwYTcuNjEsNy42MSwwLDAsMC03LjYsNy42VjcxLjVIOTguNDFWNzAuMjhBNy42MSw3LjYxLDAsMCwwLDkwLjgsNjIuNjhaIi8+PHBhdGggY2xhc3M9ImNscy01IiBkPSJNODkuMTksNDkuODlhNC4zNiw0LjM2LDAsMCwwLTIsLjUsNC4zNyw0LjM3LDAsMCwxLDAsNy44MSw0LjQ2LDQuNDYsMCwwLDAsMS42Ni40OGguN2E0LjQsNC40LDAsMCwwLS4zNy04Ljc5WiIvPjxwYXRoIGNsYXNzPSJjbHMtNiIgZD0iTTEwMC41MSw0MC44OFY2My45NWExMS4yMSwxMS4yMSwwLDAsMSwxLjksNi4zNFY3MS41aDIuMVY0MC44OFoiLz48cGF0aCBjbGFzcz0iY2xzLTUiIGQ9Ik05MC44LDYyLjY4Yy0zLjEsMC0zLjA3LDAtMy4yMiwwbC0uMzksMGE3LjYxLDcuNjEsMCwwLDEsNy4yMSw3LjU4VjcxLjVoNFY3MC4yOEE3LjYxLDcuNjEsMCwwLDAsOTAuOCw2Mi42OFoiLz48cG9seWdvbiBjbGFzcz0iY2xzLTEiIHBvaW50cz0iMTg2LjQ3IDE0LjgzIDE4Ni40NyAyNC42MSAxOTYuMjUgMjQuNjEgMTg2LjQ3IDE0LjgzIi8+PHBhdGggY2xhc3M9ImNscy0xIiBkPSJNNjguMjIsMjA0aDk2Ljk0di05LjY1YTE5LDE5LDAsMCwxLDE5LTE5LDIsMiwwLDAsMSwyLDJWMjA0aDYuNjZhNi4zMSw2LjMxLDAsMCwwLDYuMy02LjMxVjI4LjYxSDE4NC40N2EyLDIsMCwwLDEtMi0yVjEySDY4LjIyYTYuMzEsNi4zMSwwLDAsMC02LjMsNi4zMVYxOTcuNjlBNi4zMSw2LjMxLDAsMCwwLDY4LjIyLDIwNFpNMTA4LjUxLDczLjVhMiwyLDAsMCwxLTIsMkg3MS44OGEyLDIsMCwwLDEtMi0yVjM4Ljg4YTIsMiwwLDAsMSwyLTJoMzQuNjNhMiwyLDAsMCwxLDIsMlptNzUuNjEtMTUuMzFoLTY0YTIsMiwwLDAsMSwwLTRoNjRhMiwyLDAsMCwxLDAsNFptLTY0LDEzLjMxaDY0YTIsMiwwLDAsMSwwLDRoLTY0YTIsMiwwLDAsMSwwLTRabTY0LTMwLjYzaC02MC4zYTIsMiwwLDAsMSwwLTRoNjAuM2EyLDIsMCwwLDEsMCw0Wk03MS44OCw4OC44MkgxODQuMTJhMiwyLDAsMCwxLDAsNEg3MS44OGEyLDIsMCwwLDEsMC00Wm0wLDE3LjMxSDE4NC4xMmEyLDIsMCwwLDEsMCw0SDcxLjg4YTIsMiwwLDEsMSwwLTRabTAsMTcuMzFIMTg0LjEyYTIsMiwwLDAsMSwwLDRINzEuODhhMiwyLDAsMCwxLDAtNFptMCwxNy4zMUgxODQuMTJhMiwyLDAsMCwxLDAsNEg3MS44OGEyLDIsMCwwLDEsMC00Wm0wLDE3LjMxSDE4NC4xMmEyLDIsMCwwLDEsMCw0SDcxLjg4YTIsMiwwLDEsMSwwLTRabTAsMTcuMzFoNjlhMiwyLDAsMSwxLDAsNGgtNjlhMiwyLDAsMCwxLDAtNFoiLz48cGF0aCBjbGFzcz0iY2xzLTUiIGQ9Ik0xOTQuMDgsMjguNjFWMTk3LjY5YTYuMzEsNi4zMSwwLDAsMS02LjMsNi4zMWg1YTYuMzEsNi4zMSwwLDAsMCw2LjMtNi4zMVYyOC42MVoiLz48cGF0aCBjbGFzcz0iY2xzLTciIGQ9Ik02My4yMiwyMDguNWg2OC40VjIyMWEyNy41LDI3LjUsMCwwLDAsNTUsMFYyMDguNWg2LjE2YTEwLjgyLDEwLjgyLDAsMCwwLDEwLjgtMTAuODFWMjYuNjFhMi42NSwyLjY1LDAsMCwwLS43My0xLjc3TDE4Ni4yNCw4LjIzbC0uMDUsMGEyLjU2LDIuNTYsMCwwLDAtMS43Mi0uN0g2My4yMmExMC44MiwxMC44MiwwLDAsMC0xMC44LDEwLjgxVjE5Ny42OUExMC44MiwxMC44MiwwLDAsMCw2My4yMiwyMDguNVptMTE4LjQtMi41djE1YTIyLjUsMjIuNSwwLDAsMS00NSwwVjIwOC41aDMwLjU0YTIuNSwyLjUsMCwwLDAsMi41LTIuNVYxOTQuMzVhMTQuNDgsMTQuNDgsMCwwLDEsMTItMTQuMjRaTTE4NywxNiwxOTUsMjQuMTFIMTg3Wk01Ny40MiwxOC4zMWE1LjgxLDUuODEsMCwwLDEsNS44LTUuODFIMTgyVjI2LjYxYTIuNSwyLjUsMCwwLDAsMi41LDIuNWgxNC4xMVYxOTcuNjlhNS44MSw1LjgxLDAsMCwxLTUuOCw1LjgxaC02LjE2VjE3Ny4zOWEyLjUsMi41LDAsMCwwLTIuNS0yLjUsMTkuNDgsMTkuNDgsMCwwLDAtMTkuNDYsMTkuNDZ2OS4xNUg2My4yMmE1LjgxLDUuODEsMCwwLDEtNS44LTUuODFaIi8+PHBhdGggY2xhc3M9ImNscy03IiBkPSJNMTIzLjgyLDQxLjM4aDYwLjNhMi41LDIuNSwwLDAsMCwwLTVoLTYwLjNhMi41LDIuNSwwLDAsMCwwLDVaIi8+PHBhdGggY2xhc3M9ImNscy03IiBkPSJNMTIwLjE2LDU4LjY5aDY0YTIuNSwyLjUsMCwwLDAsMC01aC02NGEyLjUsMi41LDAsMCwwLDAsNVoiLz48cGF0aCBjbGFzcz0iY2xzLTciIGQ9Ik0xMjAuMTYsNzZoNjRhMi41LDIuNSwwLDAsMCwwLTVoLTY0YTIuNSwyLjUsMCwwLDAsMCw1WiIvPjxwYXRoIGNsYXNzPSJjbHMtNyIgZD0iTTcxLjg4LDkzLjMySDE4NC4xMmEyLjUsMi41LDAsMCwwLDAtNUg3MS44OGEyLjUsMi41LDAsMCwwLDAsNVoiLz48cGF0aCBjbGFzcz0iY2xzLTciIGQ9Ik03MS44OCwxMTAuNjNIMTg0LjEyYTIuNSwyLjUsMCwwLDAsMC01SDcxLjg4YTIuNSwyLjUsMCwxLDAsMCw1WiIvPjxwYXRoIGNsYXNzPSJjbHMtNyIgZD0iTTcxLjg4LDEyNy45NUgxODQuMTJhMi41LDIuNSwwLDAsMCwwLTVINzEuODhhMi41LDIuNSwwLDAsMCwwLDVaIi8+PHBhdGggY2xhc3M9ImNscy03IiBkPSJNNzEuODgsMTQ1LjI2SDE4NC4xMmEyLjUsMi41LDAsMCwwLDAtNUg3MS44OGEyLjUsMi41LDAsMCwwLDAsNVoiLz48cGF0aCBjbGFzcz0iY2xzLTciIGQ9Ik03MS44OCwxNjIuNTdIMTg0LjEyYTIuNSwyLjUsMCwwLDAsMC01SDcxLjg4YTIuNSwyLjUsMCwxLDAsMCw1WiIvPjxwYXRoIGNsYXNzPSJjbHMtNyIgZD0iTTcxLjg4LDE3OS44OWg2OWEyLjUsMi41LDAsMSwwLDAtNWgtNjlhMi41LDIuNSwwLDAsMCwwLDVaIi8+PHBhdGggY2xhc3M9ImNscy03IiBkPSJNNzEuODgsNzZoMzQuNjNhMi41LDIuNSwwLDAsMCwyLjUtMi41VjM4Ljg4YTIuNSwyLjUsMCwwLDAtMi41LTIuNUg3MS44OGEyLjUsMi41LDAsMCwwLTIuNSwyLjVWNzMuNUEyLjUsMi41LDAsMCwwLDcxLjg4LDc2Wm0yNi01SDgwLjQ4di0uNzJhNy4xMSw3LjExLDAsMCwxLDcuMS03LjFIOTAuOGE3LjExLDcuMTEsMCwwLDEsNy4xLDcuMVpNODUuMjgsNTQuM2EzLjkxLDMuOTEsMCwxLDEsNC4yNCwzLjg4aC0uNjZBMy45MSwzLjkxLDAsMCwxLDg1LjI4LDU0LjNaTTc0LjM4LDQxLjM4SDEwNFY3MWgtMS4xdi0uNzJhMTIuMTEsMTIuMTEsMCwwLDAtNi41My0xMC43Myw4LjkxLDguOTEsMCwxLDAtMTQuMzcsMCwxMi4xMSwxMi4xMSwwLDAsMC02LjUzLDEwLjczVjcxaC0xLjFaIi8+PHBhdGggY2xhc3M9ImNscy0zIiBkPSJNNDMuODMsMjJoLTRWMThhMSwxLDAsMCwwLTIsMHY0aC00YTEsMSwwLDAsMCwwLDJoNHY0YTEsMSwwLDEsMCwyLDBWMjRoNGExLDEsMCwwLDAsMC0yWiIvPjxwYXRoIGNsYXNzPSJjbHMtMiIgZD0iTTIzNiwxMjguOTVhNiw2LDAsMSwxLDYtNkE2LDYsMCwwLDEsMjM2LDEyOC45NVptMC0xMGE0LDQsMCwxLDAsNCw0QTQsNCwwLDAsMCwyMzYsMTE4Ljk1WiIvPjxwYXRoIGNsYXNzPSJjbHMtMyIgZD0iTTI1LjMsMjM0YTYsNiwwLDEsMSw2LTZBNiw2LDAsMCwxLDI1LjMsMjM0Wm0wLTEwYTQsNCwwLDEsMCw0LDRBNCw0LDAsMCwwLDI1LjMsMjI0WiIvPjxwYXRoIGNsYXNzPSJjbHMtMiIgZD0iTTM3LjgzLDEyN0gzNS4yNGwxLjgzLTEuODNhMSwxLDAsMCwwLTEuNDEtMS40MWwtMS44MywxLjgzVjEyM2ExLDEsMCwwLDAtMiwwdjIuNTlMMzAsMTIzLjc2YTEsMSwwLDAsMC0xLjQxLDEuNDFMMzAuNDEsMTI3SDI3LjgzYTEsMSwwLDAsMCwwLDJoMi41OWwtMS44MywxLjgzQTEsMSwwLDAsMCwzMCwxMzIuMjRsMS44My0xLjgzVjEzM2ExLDEsMCwwLDAsMiwwdi0yLjU5bDEuODMsMS44M2ExLDEsMCwwLDAsMS40MS0xLjQxTDM1LjI0LDEyOWgyLjU5YTEsMSwwLDEsMCwwLTJaIi8+PHBhdGggY2xhc3M9ImNscy0yIiBkPSJNMjE0LjU4LDIyNUgyMTJsMS44My0xLjgzYTEsMSwwLDAsMC0xLjQxLTEuNDFsLTEuODMsMS44M1YyMjFhMSwxLDAsMCwwLTIsMHYyLjU5bC0xLjgzLTEuODNhMSwxLDAsMCwwLTEuNDEsMS40MWwxLjgzLDEuODNoLTIuNTlhMSwxLDAsMCwwLDAsMmgyLjU5bC0xLjgzLDEuODNhMSwxLDAsMCwwLDEuNDEsMS40MWwxLjgzLTEuODNWMjMxYTEsMSwwLDAsMCwyLDB2LTIuNTlsMS44MywxLjgzYTEsMSwwLDAsMCwxLjQxLTEuNDFMMjEyLDIyN2gyLjU5YTEsMSwwLDEsMCwwLTJaIi8+PC9zdmc+;fontSize=20;" vertex="1" parent="1">
          <mxGeometry x="40" y="585" width="130" height="130" as="geometry" />
        </mxCell>
        <mxCell id="wSd2zqa3R8kVobw-JEVB-13" value="Patent Data" style="shape=image;verticalLabelPosition=bottom;labelBackgroundColor=none;verticalAlign=top;aspect=fixed;imageAspect=0;image=data:image/svg+xml,PHN2ZyB4bWxucz0iaHR0cDovL3d3dy53My5vcmcvMjAwMC9zdmciIGRhdGEtbmFtZT0iTGF5ZXIgMSIgaWQ9IkxheWVyXzEiIHZpZXdCb3g9IjAgMCAyNTYgMjU2Ij48ZGVmcz48c3R5bGU+LmNscy0xe2ZpbGw6I2VmZmFmZTt9LmNscy0ye2ZpbGw6I2U0ZWJlZDt9LmNscy0ze2ZpbGw6I2ViNTYzOTt9LmNscy00e2ZpbGw6I2Q4NDkzNjt9LmNscy01e2ZpbGw6IzI2MzIzODt9LmNscy02e2ZpbGw6I2ZkMDt9LmNscy03e2ZpbGw6IzQwYmRmZjt9PC9zdHlsZT48L2RlZnM+PHRpdGxlLz48cGF0aCBjbGFzcz0iY2xzLTEiIGQ9Ik01My4zNywyNDRIMTk4YTcuNiw3LjYsMCwwLDAsNy41OS03LjU5VjQwLjc4SDE4OC40NGEyLDIsMCwwLDEtMi0yVjIxLjU5SDUzLjM3YTcuNiw3LjYsMCwwLDAtNy41OSw3LjU5VjIzNi40MUE3LjYsNy42LDAsMCwwLDUzLjM3LDI0NFpNNjYuMTUsNzkuMTVINThhMiwyLDAsMCwxLDAtNGg4LjE5YTIsMiwwLDAsMSwwLDRaTTU4LDk0LjM0aDguMTlhMiwyLDAsMCwxLDAsNEg1OGEyLDIsMCwwLDEsMC00Wm0wLDE5LjE5aDguMTlhMiwyLDAsMCwxLDAsNEg1OGEyLDIsMCwwLDEsMC00Wm0wLDE5LjE5aDguMTlhMiwyLDAsMCwxLDAsNEg1OGEyLDIsMCwwLDEsMC00Wm0wLDE5LjE5aDguMTlhMiwyLDAsMSwxLDAsNEg1OGEyLDIsMCwxLDEsMC00Wm0wLDE5LjE5aDguMTlhMiwyLDAsMCwxLDAsNEg1OGEyLDIsMCwwLDEsMC00Wm0wLDE5LjE5aDguMTlhMiwyLDAsMSwxLDAsNEg1OGEyLDIsMCwxLDEsMC00Wm0wLDE5LjE5aDguMTlhMiwyLDAsMCwxLDAsNEg1OGEyLDIsMCwwLDEsMC00Wm0wLDE5LjE5aDguMTlhMiwyLDAsMSwxLDAsNEg1OGEyLDIsMCwxLDEsMC00Wm01NS44LTE0OS41SDc0LjM0YTIsMiwwLDAsMSwwLTRoMzkuNDNhMiwyLDAsMSwxLDAsNFpNNzQuMzQsOTQuMzRoMzkuNDNhMiwyLDAsMCwxLDAsNEg3NC4zNGEyLDIsMCwwLDEsMC00Wm0wLDE5LjE5aDM5LjQzYTIsMiwwLDAsMSwwLDRINzQuMzRhMiwyLDAsMCwxLDAtNFptMCwxOS4xOWgzOS40M2EyLDIsMCwxLDEsMCw0SDc0LjM0YTIsMiwwLDAsMSwwLTRabTAsMTkuMTloMzkuNDNhMiwyLDAsMCwxLDAsNEg3NC4zNGEyLDIsMCwwLDEsMC00Wm0wLDE5LjE5aDM5LjQzYTIsMiwwLDEsMSwwLDRINzQuMzRhMiwyLDAsMCwxLDAtNFptMCwxOS4xOWgzOS40M2EyLDIsMCwwLDEsMCw0SDc0LjM0YTIsMiwwLDEsMSwwLTRabTAsMTkuMTloMzkuNDNhMiwyLDAsMSwxLDAsNEg3NC4zNGEyLDIsMCwwLDEsMC00Wm0wLDE5LjE5aDM5LjQzYTIsMiwwLDAsMSwwLDRINzQuMzRhMiwyLDAsMCwxLDAtNFpNMTExLjc3LDQ4LjUzQTExLjQzLDExLjQzLDAsMSwxLDEyMy4yLDYwLDExLjQ1LDExLjQ1LDAsMCwxLDExMS43Nyw0OC41M1ptMjAuODcsMTgwLjEyaDguMTlhMiwyLDAsMCwxLDAsNGgtOC4xOWEyLDIsMCwwLDEsMC00Wm04LjE5LTE1LjE5aC04LjE5YTIsMiwwLDEsMSwwLTRoOC4xOWEyLDIsMCwwLDEsMCw0Wm0wLTE5LjE5aC04LjE5YTIsMiwwLDAsMSwwLTRoOC4xOWEyLDIsMCwwLDEsMCw0Wm0wLTE5LjE5aC04LjE5YTIsMiwwLDAsMSwwLTRoOC4xOWEyLDIsMCwwLDEsMCw0Wm0wLTE5LjE5aC04LjE5YTIsMiwwLDAsMSwwLTRoOC4xOWEyLDIsMCwwLDEsMCw0Wm0wLTE5LjE5aC04LjE5YTIsMiwwLDAsMSwwLTRoOC4xOWEyLDIsMCwwLDEsMCw0Wm0wLTE5LjE5aC04LjE5YTIsMiwwLDAsMSwwLTRoOC4xOWEyLDIsMCwwLDEsMCw0Wm0wLTE5LjE5aC04LjE5YTIsMiwwLDAsMSwwLTRoOC4xOWEyLDIsMCwwLDEsMCw0Wm0wLTE5LjE5aC04LjE5YTIsMiwwLDAsMSwwLTRoOC4xOWEyLDIsMCwwLDEsMCw0Wm00Ny42MiwwSDE0OWEyLDIsMCwwLDEsMC00aDM5LjQzYTIsMiwwLDAsMSwwLDRaTTE0OSw5NC4zNGgzOS40M2EyLDIsMCwwLDEsMCw0SDE0OWEyLDIsMCwwLDEsMC00Wm0wLDE5LjE5aDM5LjQzYTIsMiwwLDAsMSwwLDRIMTQ5YTIsMiwwLDAsMSwwLTRabTAsMTkuMTloMzkuNDNhMiwyLDAsMCwxLDAsNEgxNDlhMiwyLDAsMCwxLDAtNFptMCwxOS4xOWgzOS40M2EyLDIsMCwwLDEsMCw0SDE0OWEyLDIsMCwwLDEsMC00Wm0wLDE5LjE5aDM5LjQzYTIsMiwwLDAsMSwwLDRIMTQ5YTIsMiwwLDAsMSwwLTRabTAsMTkuMTloMzkuNDNhMiwyLDAsMCwxLDAsNEgxNDlhMiwyLDAsMCwxLDAtNFptMCwxOS4xOWgzOS40M2EyLDIsMCwwLDEsMCw0SDE0OWEyLDIsMCwwLDEsMC00Wm0wLDE5LjE5aDM5LjQzYTIsMiwwLDAsMSwwLDRIMTQ5YTIsMiwwLDAsMSwwLTRaIi8+PHBhdGggY2xhc3M9ImNscy0yIiBkPSJNMjAwLjYzLDQwLjc4VjIzNi40MUE3LjYsNy42LDAsMCwxLDE5MywyNDRoNWE3LjYsNy42LDAsMCwwLDcuNTktNy41OVY0MC43OFoiLz48cG9seWdvbiBjbGFzcz0iY2xzLTEiIHBvaW50cz0iMjAyLjggMzYuNzggMTkwLjQ0IDI0LjQyIDE5MC40NCAzNi43OCAyMDIuOCAzNi43OCIvPjxwYXRoIGNsYXNzPSJjbHMtMSIgZD0iTTE4OC44MiwxNy42M2wuMDktLjQ5aDBsLS4wOC40OWEyLjI4LDIuMjgsMCwwLDEsMSwuNTVMMjA5LDM3LjM3YTIuMTIsMi4xMiwwLDAsMSwuNTksMS40MXYxOTUuNGwuNjgtLjI2YTcuNjQsNy42NCwwLDAsMCw0LjkyLTcuMTFWMTkuNTlBNy42LDcuNiwwLDAsMCwyMDcuNjMsMTJINjNhNy42NCw3LjY0LDAsMCwwLTcuMTEsNC45MmwtLjI2LjY4SDE4OC40NEEyLDIsMCwwLDEsMTg4LjgyLDE3LjYzWiIvPjxjaXJjbGUgY2xhc3M9ImNscy0zIiBjeD0iMTIzLjIiIGN5PSI0OC41MyIgcj0iNy40MyIvPjxwYXRoIGNsYXNzPSJjbHMtNCIgZD0iTTEyMy4yLDQxLjFhNy40LDcuNCwwLDAsMC0yLC4yOCw3LjQyLDcuNDIsMCwwLDEsMCwxNC4zMSw3LjQzLDcuNDMsMCwxLDAsMi0xNC41OVoiLz48cGF0aCBjbGFzcz0iY2xzLTUiIGQ9Ik00OC4zNywyNDguNUgxOThhMTIuMTEsMTIuMTEsMCwwLDAsMTEuODctOS44MiwxMi4xMSwxMi4xMSwwLDAsMCw5LjgyLTExLjg3VjE5LjU5QTEyLjExLDEyLjExLDAsMCwwLDIwNy42Myw3LjVINThBMTIuMTEsMTIuMTEsMCwwLDAsNDYuMSwxNy4zMmExMi4xMSwxMi4xMSwwLDAsMC05LjgyLDExLjg3VjIzNi40MUExMi4xMSwxMi4xMSwwLDAsMCw0OC4zNywyNDguNVpNNTgsMTIuNUgyMDcuNjNhNy4xLDcuMSwwLDAsMSw3LjA5LDcuMDlWMjI2LjgxYTcuMTEsNy4xMSwwLDAsMS00LjU5LDYuNjRWMzguNzhhMi41NSwyLjU1LDAsMCwwLS43My0xLjc3TDE5MC4yMSwxNy44M2EyLjU4LDIuNTgsMCwwLDAtMS43Ny0uNzNINTEuMzNBNy4xMSw3LjExLDAsMCwxLDU4LDEyLjVaTTIwMS41OSwzNi4yOEgxOTAuOTRWMjUuNjNaTTQxLjI4LDI5LjE5YTcuMSw3LjEsMCwwLDEsNy4wOS03LjA5SDE4NS45NFYzOC43OGEyLjUsMi41LDAsMCwwLDIuNSwyLjVoMTYuNjlWMjM2LjQxQTcuMSw3LjEsMCwwLDEsMTk4LDI0My41SDQ4LjM3YTcuMSw3LjEsMCwwLDEtNy4wOS03LjA5WiIvPjxwYXRoIGNsYXNzPSJjbHMtNSIgZD0iTTEyMy4yLDYwLjQ3YTExLjkzLDExLjkzLDAsMSwwLTExLjkzLTExLjkzQTExLjk1LDExLjk1LDAsMCwwLDEyMy4yLDYwLjQ3Wm0wLTE4Ljg3YTYuOTMsNi45MywwLDEsMS02LjkzLDYuOTNBNi45NCw2Ljk0LDAsMCwxLDEyMy4yLDQxLjZaIi8+PHBhdGggY2xhc3M9ImNscy01IiBkPSJNMTQ5LDc5LjY1aDM5LjQzYTIuNSwyLjUsMCwwLDAsMC01SDE0OWEyLjUsMi41LDAsMCwwLDAsNVoiLz48cGF0aCBjbGFzcz0iY2xzLTUiIGQ9Ik0xMzAuMTQsNzcuMTVhMi41LDIuNSwwLDAsMCwyLjUsMi41aDguMTlhMi41LDIuNSwwLDAsMCwwLTVoLTguMTlBMi41LDIuNSwwLDAsMCwxMzAuMTQsNzcuMTVaIi8+PHBhdGggY2xhc3M9ImNscy01IiBkPSJNMTQ5LDk4Ljg0aDM5LjQzYTIuNSwyLjUsMCwwLDAsMC01SDE0OWEyLjUsMi41LDAsMCwwLDAsNVoiLz48cGF0aCBjbGFzcz0iY2xzLTUiIGQ9Ik0xNDAuODIsOTMuODRoLTguMTlhMi41LDIuNSwwLDAsMCwwLDVoOC4xOWEyLjUsMi41LDAsMCwwLDAtNVoiLz48cGF0aCBjbGFzcz0iY2xzLTUiIGQ9Ik0xNDksMTE4aDM5LjQzYTIuNSwyLjUsMCwwLDAsMC01SDE0OWEyLjUsMi41LDAsMCwwLDAsNVoiLz48cGF0aCBjbGFzcz0iY2xzLTUiIGQ9Ik0xNDAuODIsMTEzaC04LjE5YTIuNSwyLjUsMCwwLDAsMCw1aDguMTlhMi41LDIuNSwwLDAsMCwwLTVaIi8+PHBhdGggY2xhc3M9ImNscy01IiBkPSJNMTQ5LDEzNy4yMmgzOS40M2EyLjUsMi41LDAsMCwwLDAtNUgxNDlhMi41LDIuNSwwLDAsMCwwLDVaIi8+PHBhdGggY2xhc3M9ImNscy01IiBkPSJNMTQwLjgyLDEzMi4yMmgtOC4xOWEyLjUsMi41LDAsMCwwLDAsNWg4LjE5YTIuNSwyLjUsMCwwLDAsMC01WiIvPjxwYXRoIGNsYXNzPSJjbHMtNSIgZD0iTTE0OSwxNTYuNGgzOS40M2EyLjUsMi41LDAsMCwwLDAtNUgxNDlhMi41LDIuNSwwLDAsMCwwLDVaIi8+PHBhdGggY2xhc3M9ImNscy01IiBkPSJNMTQwLjgyLDE1MS40aC04LjE5YTIuNSwyLjUsMCwwLDAsMCw1aDguMTlhMi41LDIuNSwwLDAsMCwwLTVaIi8+PHBhdGggY2xhc3M9ImNscy01IiBkPSJNMTQ5LDE3NS41OWgzOS40M2EyLjUsMi41LDAsMCwwLDAtNUgxNDlhMi41LDIuNSwwLDAsMCwwLDVaIi8+PHBhdGggY2xhc3M9ImNscy01IiBkPSJNMTQwLjgyLDE3MC41OWgtOC4xOWEyLjUsMi41LDAsMCwwLDAsNWg4LjE5YTIuNSwyLjUsMCwwLDAsMC01WiIvPjxwYXRoIGNsYXNzPSJjbHMtNSIgZD0iTTE0OSwxOTQuNzhoMzkuNDNhMi41LDIuNSwwLDAsMCwwLTVIMTQ5YTIuNSwyLjUsMCwwLDAsMCw1WiIvPjxwYXRoIGNsYXNzPSJjbHMtNSIgZD0iTTE0MC44MiwxODkuNzhoLTguMTlhMi41LDIuNSwwLDAsMCwwLDVoOC4xOWEyLjUsMi41LDAsMCwwLDAtNVoiLz48cGF0aCBjbGFzcz0iY2xzLTUiIGQ9Ik0xNDksMjE0aDM5LjQzYTIuNSwyLjUsMCwwLDAsMC01SDE0OWEyLjUsMi41LDAsMCwwLDAsNVoiLz48cGF0aCBjbGFzcz0iY2xzLTUiIGQ9Ik0xNDAuODIsMjA5aC04LjE5YTIuNSwyLjUsMCwxLDAsMCw1aDguMTlhMi41LDIuNSwwLDAsMCwwLTVaIi8+PHBhdGggY2xhc3M9ImNscy01IiBkPSJNMTQ5LDIzMy4xNWgzOS40M2EyLjUsMi41LDAsMCwwLDAtNUgxNDlhMi41LDIuNSwwLDAsMCwwLDVaIi8+PHBhdGggY2xhc3M9ImNscy01IiBkPSJNMTQwLjgyLDIyOC4xNWgtOC4xOWEyLjUsMi41LDAsMCwwLDAsNWg4LjE5YTIuNSwyLjUsMCwwLDAsMC01WiIvPjxwYXRoIGNsYXNzPSJjbHMtNSIgZD0iTTc0LjM0LDc5LjY1aDM5LjQzYTIuNSwyLjUsMCwxLDAsMC01SDc0LjM0YTIuNSwyLjUsMCwwLDAsMCw1WiIvPjxwYXRoIGNsYXNzPSJjbHMtNSIgZD0iTTU4LDc5LjY1aDguMTlhMi41LDIuNSwwLDAsMCwwLTVINThhMi41LDIuNSwwLDAsMCwwLDVaIi8+PHBhdGggY2xhc3M9ImNscy01IiBkPSJNNzQuMzQsOTguODRoMzkuNDNhMi41LDIuNSwwLDAsMCwwLTVINzQuMzRhMi41LDIuNSwwLDAsMCwwLDVaIi8+PHBhdGggY2xhc3M9ImNscy01IiBkPSJNNTgsOTguODRoOC4xOWEyLjUsMi41LDAsMCwwLDAtNUg1OGEyLjUsMi41LDAsMCwwLDAsNVoiLz48cGF0aCBjbGFzcz0iY2xzLTUiIGQ9Ik03NC4zNCwxMThoMzkuNDNhMi41LDIuNSwwLDAsMCwwLTVINzQuMzRhMi41LDIuNSwwLDAsMCwwLDVaIi8+PHBhdGggY2xhc3M9ImNscy01IiBkPSJNNTgsMTE4aDguMTlhMi41LDIuNSwwLDAsMCwwLTVINThhMi41LDIuNSwwLDAsMCwwLDVaIi8+PHBhdGggY2xhc3M9ImNscy01IiBkPSJNNzQuMzQsMTM3LjIyaDM5LjQzYTIuNSwyLjUsMCwxLDAsMC01SDc0LjM0YTIuNSwyLjUsMCwwLDAsMCw1WiIvPjxwYXRoIGNsYXNzPSJjbHMtNSIgZD0iTTU4LDEzNy4yMmg4LjE5YTIuNSwyLjUsMCwwLDAsMC01SDU4YTIuNSwyLjUsMCwwLDAsMCw1WiIvPjxwYXRoIGNsYXNzPSJjbHMtNSIgZD0iTTc0LjM0LDE1Ni40aDM5LjQzYTIuNSwyLjUsMCwwLDAsMC01SDc0LjM0YTIuNSwyLjUsMCwwLDAsMCw1WiIvPjxwYXRoIGNsYXNzPSJjbHMtNSIgZD0iTTU4LDE1Ni40aDguMTlhMi41LDIuNSwwLDEsMCwwLTVINThhMi41LDIuNSwwLDEsMCwwLDVaIi8+PHBhdGggY2xhc3M9ImNscy01IiBkPSJNNzQuMzQsMTc1LjU5aDM5LjQzYTIuNSwyLjUsMCwxLDAsMC01SDc0LjM0YTIuNSwyLjUsMCwwLDAsMCw1WiIvPjxwYXRoIGNsYXNzPSJjbHMtNSIgZD0iTTU4LDE3NS41OWg4LjE5YTIuNSwyLjUsMCwwLDAsMC01SDU4YTIuNSwyLjUsMCwwLDAsMCw1WiIvPjxwYXRoIGNsYXNzPSJjbHMtNSIgZD0iTTc0LjM0LDE5NC43OGgzOS40M2EyLjUsMi41LDAsMCwwLDAtNUg3NC4zNGEyLjUsMi41LDAsMSwwLDAsNVoiLz48cGF0aCBjbGFzcz0iY2xzLTUiIGQ9Ik01OCwxOTQuNzhoOC4xOWEyLjUsMi41LDAsMSwwLDAtNUg1OGEyLjUsMi41LDAsMSwwLDAsNVoiLz48cGF0aCBjbGFzcz0iY2xzLTUiIGQ9Ik03NC4zNCwyMTRoMzkuNDNhMi41LDIuNSwwLDEsMCwwLTVINzQuMzRhMi41LDIuNSwwLDAsMCwwLDVaIi8+PHBhdGggY2xhc3M9ImNscy01IiBkPSJNNTgsMjE0aDguMTlhMi41LDIuNSwwLDAsMCwwLTVINThhMi41LDIuNSwwLDAsMCwwLDVaIi8+PHBhdGggY2xhc3M9ImNscy01IiBkPSJNNzQuMzQsMjMzLjE1aDM5LjQzYTIuNSwyLjUsMCwwLDAsMC01SDc0LjM0YTIuNSwyLjUsMCwwLDAsMCw1WiIvPjxwYXRoIGNsYXNzPSJjbHMtNSIgZD0iTTU4LDIzMy4xNWg4LjE5YTIuNSwyLjUsMCwxLDAsMC01SDU4YTIuNSwyLjUsMCwxLDAsMCw1WiIvPjxwYXRoIGNsYXNzPSJjbHMtNiIgZD0iTTIwLjc2LDEzLjZ2NGgtNGExLDEsMCwwLDAsMCwyaDR2NGExLDEsMCwwLDAsMiwwdi00aDRhMSwxLDAsMCwwLDAtMmgtNHYtNGExLDEsMCwwLDAtMiwwWiIvPjxwYXRoIGNsYXNzPSJjbHMtNyIgZD0iTTIzNSwxNzEuNTl2NGgtNGExLDEsMCwwLDAsMCwyaDR2NGExLDEsMCwwLDAsMiwwdi00aDRhMSwxLDAsMCwwLDAtMmgtNHYtNGExLDEsMCwwLDAtMiwwWiIvPjxwYXRoIGNsYXNzPSJjbHMtNiIgZD0iTTIwLjc2LDE4OS45djRoLTRhMSwxLDAsMCwwLDAsMmg0djRhMSwxLDAsMCwwLDIsMHYtNGg0YTEsMSwwLDEsMCwwLTJoLTR2LTRhMSwxLDAsMCwwLTIsMFoiLz48cGF0aCBjbGFzcz0iY2xzLTciIGQ9Ik0zMCwxMDMuM2E2LDYsMCwxLDEtNi02QTYsNiwwLDAsMSwzMCwxMDMuM1ptLTEwLDBhNCw0LDAsMSwwLDQtNEE0LDQsMCwwLDAsMjAsMTAzLjNaIi8+PHBhdGggY2xhc3M9ImNscy02IiBkPSJNMjQyLDYzLjU4YTYsNiwwLDEsMS02LTZBNiw2LDAsMCwxLDI0Miw2My41OFptLTEwLDBhNCw0LDAsMSwwLDQtNEE0LDQsMCwwLDAsMjMyLDYzLjU4WiIvPjwvc3ZnPg==;fontSize=20;" vertex="1" parent="1">
          <mxGeometry x="40" y="345" width="130" height="130" as="geometry" />
        </mxCell>
        <mxCell id="wSd2zqa3R8kVobw-JEVB-14" value="New Titles&#xa;Measure" style="shape=image;verticalLabelPosition=bottom;labelBackgroundColor=none;verticalAlign=top;aspect=fixed;imageAspect=0;image=data:image/svg+xml,PHN2ZyB4bWxucz0iaHR0cDovL3d3dy53My5vcmcvMjAwMC9zdmciIGRhdGEtbmFtZT0iTGF5ZXIgMSIgaWQ9IkxheWVyXzEiIHZpZXdCb3g9IjAgMCAyNTYgMjU2Ij48ZGVmcz48c3R5bGU+LmNscy0xe2ZpbGw6I2ViNTYzOTt9LmNscy0ye2ZpbGw6I2Q4NDkzNjt9LmNscy0ze2ZpbGw6I2VmZmFmZTt9LmNscy00e2ZpbGw6I2ZkMDt9LmNscy01e2ZpbGw6IzQwYmRmZjt9LmNscy02e2ZpbGw6I2U0ZWJlZDt9LmNscy03e2ZpbGw6IzI2MzIzODt9PC9zdHlsZT48L2RlZnM+PHRpdGxlLz48cGF0aCBjbGFzcz0iY2xzLTEiIGQ9Ik0yMTcuODIsNzIuOTVjLTI2LjU3LDAtNDEuMTUsMzIuNjgtMjAuMjQsNTIuNTdoNDAuNDdDMjU4Ljk1LDEwNS42NSwyNDQuNDIsNzIuOTUsMjE3LjgyLDcyLjk1WiIvPjxwYXRoIGNsYXNzPSJjbHMtMiIgZD0iTTIxNy44Miw3Mi45NWEzMS4yLDMxLjIsMCwwLDAtNSwuNCwzMC4yMiwzMC4yMiwwLDAsMSwxNS4yMyw1Mi4xN2gxMEMyNTguOTUsMTA1LjY1LDI0NC40Miw3Mi45NSwyMTcuODIsNzIuOTVaIi8+PHBhdGggY2xhc3M9ImNscy0zIiBkPSJNMjE0Ljc2LDExMS44aDBhOC43Niw4Ljc2LDAsMSwwLTEuOSwwWiIvPjxwYXRoIGNsYXNzPSJjbHMtMyIgZD0iTTIzMC40OSwxMjguMjdhMTQuMSwxNC4xLDAsMCwwLTE0LTEyLjQ3aC01LjRhMTQuMSwxNC4xLDAsMCwwLTE0LDEyLjQ3QTMwLjI0LDMwLjI0LDAsMCwwLDIzMC40OSwxMjguMjdaIi8+PHBhdGggY2xhc3M9ImNscy00IiBkPSJNMTAzLjA3LDEzMmE0MC45MSw0MC45MSwwLDAsMCw2NC4xOS04LjE1YzE2LjA2LTI3LjI0LTMuNjQtNjEuNjgtMzUuMjYtNjEuNjhDOTUuNzUsNjIuMjIsNzcuMzEsMTA2LjI5LDEwMy4wNywxMzJaIi8+PHBhdGggY2xhc3M9ImNscy0zIiBkPSJNMTMwLjcsMTE1LjhoLTUuNGExNC4xLDE0LjEsMCwwLDAtMTQsMTIuNDYsMzAsMzAsMCwwLDAsMzMuMzUsMEExNC4xMSwxNC4xMSwwLDAsMCwxMzAuNywxMTUuOFoiLz48cGF0aCBjbGFzcz0iY2xzLTMiIGQ9Ik0xMjksMTExLjhoMGE4Ljc2LDguNzYsMCwxLDAtMS45LDBaIi8+PHBhdGggY2xhc3M9ImNscy01IiBkPSJNMTQ4LjIzLDEyNS41bC41OS0uNTdhMzAuMTcsMzAuMTcsMCwwLDAtMjAuODMtNTIsMzAuMjIsMzAuMjIsMCwwLDAtMzAuMTksMzAuMTksMjkuOTIsMjkuOTIsMCwwLDAsOS4zNiwyMS44MmwuNTkuNTcuMjMtLjc5QTE4LjA4LDE4LjA4LDAsMCwxLDExOC44NywxMTNsLjczLS4yOC0uNTUtLjU1YTEyLjc0LDEyLjc0LDAsMSwxLDE3LjkxLDBsLS41NS41NS43My4yOEExOC4wOCwxOC4wOCwwLDAsMSwxNDgsMTI0LjcyWm0xLjIyLTIwLjM5YTIsMiwwLDAsMS0yLTJBMTkuNDYsMTkuNDYsMCwwLDAsMTI4LDgzLjY2YTIsMiwwLDAsMSwwLTQsMjMuNDYsMjMuNDYsMCwwLDEsMjMuNDYsMjMuNDZBMiwyLDAsMCwxLDE0OS40NiwxMDUuMTJaIi8+PHBhdGggY2xhc3M9ImNscy0xIiBkPSJNNDYuMTksNzIuOTVDMTkuNjEsNzIuOTUsNSwxMDUuNjMsMjYsMTI1LjUySDY2LjQyQzg3LjMxLDEwNS42NSw3Mi43OSw3Mi45NSw0Ni4xOSw3Mi45NVoiLz48cGF0aCBjbGFzcz0iY2xzLTIiIGQ9Ik00Ni4xOSw3Mi45NWEzMS4yLDMxLjIsMCwwLDAtNSwuNCwzMC4yMiwzMC4yMiwwLDAsMSwxNS4yMyw1Mi4xN2gxMEM4Ny4zMSwxMDUuNjUsNzIuNzksNzIuOTUsNDYuMTksNzIuOTVaIi8+PHBhdGggY2xhc3M9ImNscy0zIiBkPSJNNDMuMTQsMTExLjhoMGE4Ljc2LDguNzYsMCwxLDAtMS45LDBaIi8+PHBhdGggY2xhc3M9ImNscy0zIiBkPSJNMjUuNTEsMTI4LjI3YTMwLjI0LDMwLjI0LDAsMCwwLDMzLjM2LDAsMTQuMTEsMTQuMTEsMCwwLDAtMTQtMTIuNDdoLTUuNEExNC4xLDE0LjEsMCwwLDAsMjUuNTEsMTI4LjI3WiIvPjxwYXRoIGNsYXNzPSJjbHMtNiIgZD0iTTQyLjE5LDk0LjM3YTguNzEsOC43MSwwLDAsMC0yLC4yNCw4LjczLDguNzMsMCwwLDEsMCwxNyw5LDksMCwwLDAsMS4wNi4xOWgxLjlhOC43NCw4Ljc0LDAsMCwwLTEtMTcuNDNaIi8+PHBhdGggY2xhc3M9ImNscy02IiBkPSJNNDQuODksMTE1LjhoLTRhMTQuMTEsMTQuMTEsMCwwLDEsMTQsMTIuNDcsMzAuNzIsMzAuNzIsMCwwLDEtMTQuNzcsNC45NCwzMC41MiwzMC41MiwwLDAsMCwxOC43Ny00Ljk0QTE0LjExLDE0LjExLDAsMCwwLDQ0Ljg5LDExNS44WiIvPjxwYXRoIGNsYXNzPSJjbHMtNiIgZD0iTTEyOCw5NC4zN2E4LjcxLDguNzEsMCwwLDAtMiwuMjQsOC43Myw4LjczLDAsMCwxLDAsMTcsOSw5LDAsMCwwLDEuMDYuMTlIMTI5YTguNzQsOC43NCwwLDAsMC0xLTE3LjQzWiIvPjxwYXRoIGNsYXNzPSJjbHMtNiIgZD0iTTEzMC43LDExNS44aC00YTE0LjExLDE0LjExLDAsMCwxLDE0LDEyLjQ3LDMwLjcyLDMwLjcyLDAsMCwxLTE0Ljc3LDQuOTQsMzAuNTIsMzAuNTIsMCwwLDAsMTguNzctNC45NEExNC4xMSwxNC4xMSwwLDAsMCwxMzAuNywxMTUuOFoiLz48cGF0aCBjbGFzcz0iY2xzLTYiIGQ9Ik0yMTMuODEsOTQuMzdhOC43MSw4LjcxLDAsMCwwLTIsLjI0LDguNzMsOC43MywwLDAsMSwwLDE3LDksOSwwLDAsMCwxLjA2LjE5aDEuOWE4Ljc0LDguNzQsMCwwLDAtMS0xNy40M1oiLz48cGF0aCBjbGFzcz0iY2xzLTYiIGQ9Ik0yMTYuNTEsMTE1LjhoLTRhMTQuMTEsMTQuMTEsMCwwLDEsMTQsMTIuNDcsMzAuNzIsMzAuNzIsMCwwLDEtMTQuNzcsNC45NCwzMC41MiwzMC41MiwwLDAsMCwxOC43Ny00Ljk0QTE0LjExLDE0LjExLDAsMCwwLDIxNi41MSwxMTUuOFoiLz48cGF0aCBjbGFzcz0iY2xzLTQiIGQ9Ik0yMTYuMSwxOTEuMjJhOC43Miw4LjcyLDAsMCwwLDAtMTIuMzRsLTUwLjc3LTUwLjc3QTQ1LjkzLDQ1LjkzLDAsMCwxLDE1MywxNDAuNDVsNTAuNzcsNTAuNzdBOC43Miw4LjcyLDAsMCwwLDIxNi4xLDE5MS4yMloiLz48cGF0aCBjbGFzcz0iY2xzLTciIGQ9Ik0xMjgsNTcuNzJjLTQwLjIzLDAtNjAuNyw0OC45Mi0zMi4xMSw3Ny41MWE0NS4zNCw0NS4zNCwwLDAsMCw1My40Nyw4bDUxLjIyLDUxLjIyYTEzLjIzLDEzLjIzLDAsMCwwLDE4LjcxLTE4LjcxbC01MS4yLTUxLjJDMTg0LjE3LDk0LjM0LDE2Mi4zLDU3LjcyLDEyOCw1Ny43MlptODcuNzUsMTIxLjUxYTguMjMsOC4yMywwLDEsMS0xMS42NCwxMS42NGwtNTAuMzUtNTAuMzVhNDYuNDYsNDYuNDYsMCwwLDAsMTEuNjQtMTEuNjRabS01Mi45My01NS41OGE0MC40NCw0MC40NCwwLDAsMS02My40LDhjLTI1LjQxLTI1LjQxLTcuMjYtNjksMjguNTgtNjlDMTU5LjIxLDYyLjcyLDE3OC43LDk2LjcyLDE2Mi44MiwxMjMuNjVaIi8+PHBhdGggY2xhc3M9ImNscy03IiBkPSJNMTI4LDc5LjE2YTIuNSwyLjUsMCwwLDAsMCw1LDE5LDE5LDAsMCwxLDE5LDE5LDIuNSwyLjUsMCwwLDAsNSwwLDI0LDI0LDAsMCwwLTI0LTI0WiIvPjxwYXRoIGNsYXNzPSJjbHMtNyIgZD0iTTEyOCw2OC40M2EzNC43MywzNC43MywwLDAsMC0zNC42OSwzNC42OWMwLDQ1LjE0LDY5LjM3LDQ1LjU0LDY5LjM3LDBBMzQuNzMsMzQuNzMsMCwwLDAsMTI4LDY4LjQzWk0xMTEuODYsMTI4QTEzLjUzLDEzLjUzLDAsMCwxLDEyNS4zLDExNi4zaDUuNEExMy41MywxMy41MywwLDAsMSwxNDQuMTQsMTI4LDI5LjYxLDI5LjYxLDAsMCwxLDExMS44NiwxMjhabTcuOS0yNC45YTguMjQsOC4yNCwwLDEsMSw5LjE3LDguMTloLTEuODVBOC4yNSw4LjI1LDAsMCwxLDExOS43NiwxMDMuMTJabTI4LjcyLDIxLjQ2YTE4LjQ4LDE4LjQ4LDAsMCwwLTExLjE3LTEyLjA1LDEzLjI0LDEzLjI0LDAsMSwwLTE4LjYyLDAsMTguNDgsMTguNDgsMCwwLDAtMTEuMTcsMTIuMDUsMjkuNjksMjkuNjksMCwxLDEsNDEsMFoiLz48cGF0aCBjbGFzcz0iY2xzLTciIGQ9Ik0xODkuMjksMTI3LjY0YTM0LjcxLDM0LjcxLDAsMCwwLDQ5LjA1LDBjMjEuODQtMjEuODQsNi4xNy01OS4yMS0yNC41My01OS4yMVMxNjcuNDIsMTA1Ljc4LDE4OS4yOSwxMjcuNjRabTguMzkuMzhhMTMuNTMsMTMuNTMsMCwwLDEsMTMuNDQtMTEuNzJoNS40QTEzLjUzLDEzLjUzLDAsMCwxLDIzMCwxMjgsMjkuNzYsMjkuNzYsMCwwLDEsMTk3LjY3LDEyOFptNy45LTI0LjkxYTguMjQsOC4yNCwwLDEsMSw5LjE3LDguMTloLTEuODVBOC4yNSw4LjI1LDAsMCwxLDIwNS41NywxMDMuMTJabTguMjQtMjkuNjdjMjYuNiwwLDM5Ljg4LDMyLjY0LDIwLjQ4LDUxLjE1YTE4LjQ4LDE4LjQ4LDAsMCwwLTExLjE4LTEyLjA3LDEzLjI0LDEzLjI0LDAsMSwwLTE4LjYyLDAsMTguNDgsMTguNDgsMCwwLDAtMTEuMTgsMTIuMDdDMTczLjkzLDEwNi4wOCwxODcuMjIsNzMuNDUsMjEzLjgxLDczLjQ1WiIvPjxwYXRoIGNsYXNzPSJjbHMtNyIgZD0iTTY2LjcxLDEyNy42NGEzNC42OSwzNC42OSwwLDEsMC00OS4wNSwwQTM0LjczLDM0LjczLDAsMCwwLDY2LjcxLDEyNy42NFpNMjYsMTI4QTEzLjUzLDEzLjUzLDAsMCwxLDM5LjQ5LDExNi4zaDUuNEExMy41MywxMy41MywwLDAsMSw1OC4zMywxMjgsMjkuNzYsMjkuNzYsMCwwLDEsMjYsMTI4Wm03LjktMjQuOTFhOC4yNCw4LjI0LDAsMSwxLDkuMTcsOC4xOUg0MS4yNkE4LjI1LDguMjUsMCwwLDEsMzMuOTQsMTAzLjEyWm04LjI0LTI5LjY3YzI2LjYyLDAsMzkuODcsMzIuNjUsMjAuNDgsNTEuMTVBMTguNDgsMTguNDgsMCwwLDAsNTEuNSwxMTIuNTJhMTMuMjQsMTMuMjQsMCwxLDAtMTguNjIsMEExOC40OCwxOC40OCwwLDAsMCwyMS43LDEyNC41OUMyLjMxLDEwNi4wOCwxNS42LDczLjQ1LDQyLjE5LDczLjQ1WiIvPjxwYXRoIGNsYXNzPSJjbHMtNCIgZD0iTTM4LjQ0LDE3Mi42M2gtNHYtNGExLDEsMCwwLDAtMiwwdjRoLTRhMSwxLDAsMCwwLDAsMmg0djRhMSwxLDAsMCwwLDIsMHYtNGg0YTEsMSwwLDEsMCwwLTJaIi8+PHBhdGggY2xhc3M9ImNscy00IiBkPSJNNTEuNjgsMjNoLTRWMTlhMSwxLDAsMSwwLTIsMHY0aC00YTEsMSwwLDEsMCwwLDJoNHY0YTEsMSwwLDAsMCwyLDBWMjVoNGExLDEsMCwwLDAsMC0yWiIvPjxwYXRoIGNsYXNzPSJjbHMtNSIgZD0iTTI4LDYwLjQxSDI0di00YTEsMSwwLDEsMC0yLDB2NEgxOGExLDEsMCwxLDAsMCwyaDR2NGExLDEsMCwwLDAsMiwwdi00aDRhMSwxLDAsMCwwLDAtMloiLz48cGF0aCBjbGFzcz0iY2xzLTUiIGQ9Ik0yMzkuNTYsMTgzLjQ3aC00di00YTEsMSwwLDAsMC0yLDB2NGgtNGExLDEsMCwwLDAsMCwyaDR2NGExLDEsMCwwLDAsMiwwdi00aDRhMSwxLDAsMCwwLDAtMloiLz48cGF0aCBjbGFzcz0iY2xzLTUiIGQ9Ik04OS4yNSwzNi45M2E2LDYsMCwxLDEsNi02QTYsNiwwLDAsMSw4OS4yNSwzNi45M1ptMC0xMGE0LDQsMCwxLDAsNCw0QTQsNCwwLDAsMCw4OS4yNSwyNi45M1oiLz48cGF0aCBjbGFzcz0iY2xzLTQiIGQ9Ik0xMzEuNSwxNzRhNiw2LDAsMSwxLDYtNkE2LDYsMCwwLDEsMTMxLjUsMTc0Wm0wLTEwYTQsNCwwLDEsMCw0LDRBNCw0LDAsMCwwLDEzMS41LDE2NFoiLz48cGF0aCBjbGFzcz0iY2xzLTQiIGQ9Ik0yMTUuMTgsNjEuMDlhNiw2LDAsMSwxLDYtNkE2LDYsMCwwLDEsMjE1LjE4LDYxLjA5Wm0wLTEwYTQsNCwwLDEsMCw0LDRBNCw0LDAsMCwwLDIxNS4xOCw1MS4wOVoiLz48cGF0aCBjbGFzcz0iY2xzLTUiIGQ9Ik0xNTMsMjVoLTIuNTlsMS44My0xLjgzYTEsMSwwLDAsMC0xLjQxLTEuNDFMMTQ5LDIzLjU5VjIxYTEsMSwwLDAsMC0yLDB2Mi41OWwtMS44My0xLjgzYTEsMSwwLDAsMC0xLjQxLDEuNDFMMTQ1LjU5LDI1SDE0M2ExLDEsMCwwLDAsMCwyaDIuNTlsLTEuODMsMS44M2ExLDEsMCwwLDAsMS40MSwxLjQxTDE0NywyOC40MVYzMWExLDEsMCwwLDAsMiwwVjI4LjQxbDEuODMsMS44M2ExLDEsMCwwLDAsMS40MS0xLjQxTDE1MC40MSwyN0gxNTNhMSwxLDAsMCwwLDAtMloiLz48cGF0aCBjbGFzcz0iY2xzLTUiIGQ9Ik03NS4zNiwxNDdINzIuNzdsMS44My0xLjgzYTEsMSwwLDAsMC0xLjQxLTEuNDFsLTEuODMsMS44M1YxNDNhMSwxLDAsMCwwLTIsMHYyLjU5bC0xLjgzLTEuODNhMSwxLDAsMCwwLTEuNDEsMS40MUw2Ny45NSwxNDdINjUuMzZhMSwxLDAsMCwwLDAsMmgyLjU5bC0xLjgzLDEuODNhMSwxLDAsMCwwLDEuNDEsMS40MWwxLjgzLTEuODNWMTUzYTEsMSwwLDAsMCwyLDB2LTIuNTlsMS44MywxLjgzYTEsMSwwLDAsMCwxLjQxLTEuNDFMNzIuNzcsMTQ5aDIuNTlhMSwxLDAsMCwwLDAtMloiLz48L3N2Zz4=;fontSize=20;" vertex="1" parent="1">
          <mxGeometry x="365" y="115" width="120" height="120" as="geometry" />
        </mxCell>
        <mxCell id="wSd2zqa3R8kVobw-JEVB-17" value="Automation Exposure&#xa;Measure" style="shape=image;verticalLabelPosition=bottom;labelBackgroundColor=none;verticalAlign=top;aspect=fixed;imageAspect=0;image=data:image/svg+xml,PHN2ZyB4bWxucz0iaHR0cDovL3d3dy53My5vcmcvMjAwMC9zdmciIGRhdGEtbmFtZT0iTGF5ZXIgMSIgaWQ9IkxheWVyXzEiIHZpZXdCb3g9IjAgMCAyNTYgMjU2Ij48ZGVmcz48c3R5bGU+LmNscy0xe2ZpbGw6I2ZkMDt9LmNscy0ye2ZpbGw6I2VmYzgwMzt9LmNscy0ze2ZpbGw6I2VmZmFmZTt9LmNscy00e2ZpbGw6I2ViNTYzOTt9LmNscy01e2ZpbGw6I2Q4NDkzNjt9LmNscy02e2ZpbGw6IzQwYmRmZjt9LmNscy03e2ZpbGw6I2U0ZWJlZDt9LmNscy04e2ZpbGw6IzI2MzIzODt9PC9zdHlsZT48L2RlZnM+PHRpdGxlLz48cGF0aCBjbGFzcz0iY2xzLTEiIGQ9Ik0xMzIsMTcuMTRBNjAuNjUsNjAuNjUsMCwwLDAsOTguNzEsMTI4LjQ4bC4xMy4wOGg2Ni4zM2wuMTMtLjA4QTYwLjY1LDYwLjY1LDAsMCwwLDEzMiwxNy4xNFoiLz48cGF0aCBjbGFzcz0iY2xzLTIiIGQ9Ik0xMzIsMTcuMTRjLTEuNjksMC0zLjM1LjA5LTUsLjIyYTYwLjY0LDYwLjY0LDAsMCwxLDI4LjI5LDExMS4xMmwtLjEyLjA4aDEwbC4xMy0uMDhBNjAuNjUsNjAuNjUsMCwwLDAsMTMyLDE3LjE0WiIvPjxwYXRoIGNsYXNzPSJjbHMtMyIgZD0iTTE0Mi42Nyw2NC41OWE3Ljc4LDcuNzgsMCwwLDAtNS44MywyLjY1LDIuMTYsMi4xNiwwLDAsMS0zLDAsNy43NSw3Ljc1LDAsMCwwLTExLjY3LDAsMi4xNiwyLjE2LDAsMCwxLTMsMCw3Ljc3LDcuNzcsMCwwLDAtMTMuNjIsNS4xM3Y1Ni4yaDQ0LjkxVjcyLjM3QTcuNzksNy43OSwwLDAsMCwxNDIuNjcsNjQuNTlaIi8+PHBhdGggY2xhc3M9ImNscy00IiBkPSJNMTY0LjE1LDIxMC4zMWwtMTYuNjcsMy40MmEyLDIsMCwwLDEtLjgsMEwxMjgsMjA5LjlsLTE4LjY3LDMuODNhMiwyLDAsMCwxLS44LDBsLTExLjY3LTMuNDJ2MTUuMTFoNjcuM1oiLz48cG9seWdvbiBjbGFzcz0iY2xzLTUiIHBvaW50cz0iMTU5LjE1IDIxMS4zNCAxNTkuMTUgMjI1LjQyIDE2NC4xNSAyMjUuNDIgMTY0LjE1IDIxMC4zMSAxNTkuMTUgMjExLjM0Ii8+PHBhdGggY2xhc3M9ImNscy0xIiBkPSJNMTY0LjE1LDE2MS45Mkg5Ni44NXY0NS4zMWwxMi4wNywyLjUsMTguNjctMy44M2EyLDIsMCwwLDEsLjgsMGwxOC42NywzLjgzLDE3LjA4LTMuNVoiLz48cGF0aCBjbGFzcz0iY2xzLTYiIGQ9Ik0xNjEuMzgsMTQyLjM2SDk5LjYyYTIuODksMi44OSwwLDAsMCwuMTIsNS43N2g2MS41MmEyLjg5LDIuODksMCwwLDAsLjEyLTUuNzdaIi8+PHBhdGggY2xhc3M9ImNscy02IiBkPSJNMTYxLjM4LDEzMi41OEg5OS42MmEyLjg5LDIuODksMCwwLDAsLjEyLDUuNzdoNjEuNTJhMi44OSwyLjg5LDAsMCwwLC4xMi01Ljc3WiIvPjxwYXRoIGNsYXNzPSJjbHMtNiIgZD0iTTE2MS4zOCwxNTIuMTVIOTkuNjJhMi44OSwyLjg5LDAsMCwwLC4xMiw1Ljc3aDYxLjUyYTIuODksMi44OSwwLDAsMCwuMTItNS43N1oiLz48cG9seWdvbiBjbGFzcz0iY2xzLTEiIHBvaW50cz0iMTY1LjQ3IDIyOS40MiAxMDYuNTMgMjI5LjQyIDEzNiAyNDMuNzggMTY1LjQ3IDIyOS40MiIvPjxwb2x5Z29uIGNsYXNzPSJjbHMtMiIgcG9pbnRzPSIxNTAuNDcgMjI5LjQyIDEyOC41IDI0MC4xMiAxMzYgMjQzLjc4IDE2NS40NyAyMjkuNDIgMTUwLjQ3IDIyOS40MiIvPjxwYXRoIGNsYXNzPSJjbHMtNiIgZD0iTTE2MS4zOCwxNDIuMzZIOTkuNjJhMi44OSwyLjg5LDAsMCwwLC4xMiw1Ljc3aDYxLjUyYTIuODksMi44OSwwLDAsMCwuMTItNS43N1oiLz48cGF0aCBjbGFzcz0iY2xzLTYiIGQ9Ik0xNjEuMzgsMTMyLjU4SDk5LjYyYTIuODksMi44OSwwLDAsMCwuMTIsNS43N2g2MS41MmEyLjg5LDIuODksMCwwLDAsLjEyLTUuNzdaIi8+PHBhdGggY2xhc3M9ImNscy02IiBkPSJNMTYxLjM4LDE1Mi4xNUg5OS42MmEyLjg5LDIuODksMCwwLDAsLjEyLDUuNzdoNjEuNTJhMi44OSwyLjg5LDAsMCwwLC4xMi01Ljc3WiIvPjxwYXRoIGNsYXNzPSJjbHMtNyIgZD0iTTE0Mi42Nyw2NC41OWE3LjcyLDcuNzIsMCwwLDAtMi41LjQyLDcuNzksNy43OSwwLDAsMSw1LjI4LDcuMzZ2NTYuMmg1VjcyLjM3QTcuNzksNy43OSwwLDAsMCwxNDIuNjcsNjQuNTlaIi8+PHBhdGggY2xhc3M9ImNscy02IiBkPSJNMTU2LjM4LDE0Mi4zNkg5NC42MmEyLjg5LDIuODksMCwwLDAsLjEyLDUuNzdoNjEuNTJhMi44OSwyLjg5LDAsMCwwLC4xMi01Ljc3WiIvPjxwYXRoIGNsYXNzPSJjbHMtNiIgZD0iTTE1Ni4zOCwxMzIuNThIOTQuNjJhMi44OSwyLjg5LDAsMCwwLC4xMiw1Ljc3aDYxLjUyYTIuODksMi44OSwwLDAsMCwuMTItNS43N1oiLz48cGF0aCBjbGFzcz0iY2xzLTYiIGQ9Ik0xNTYuMzgsMTUyLjE1SDk0LjYyYTIuODksMi44OSwwLDAsMCwuMTIsNS43N2g2MS41MmEyLjg5LDIuODksMCwwLDAsLjEyLTUuNzdaIi8+PHBhdGggY2xhc3M9ImNscy04IiBkPSJNODkuNDUsMTMwLjMxYTcuMzYsNy4zNiwwLDAsMC0uMjQsMTAsNy4zNSw3LjM1LDAsMCwwLDAsOS43OCw3LjMzLDcuMzMsMCwwLDAtMS4xNSw4LDIuNDksMi40OSwwLDAsMC0uNzEsMS43NHY2Ny41YTIuNTMsMi41MywwLDAsMCwxLjQxLDIuMjVsMzguMTUsMTguNThhMi41LDIuNSwwLDAsMCwyLjE5LDBsMzguMTUtMTguNThhMi41MiwyLjUyLDAsMCwwLDEuNDEtMi4yNXYtNjcuNWEyLjQ5LDIuNDksMCwwLDAtLjcxLTEuNzQsNy4zOCw3LjM4LDAsMCwwLTEuMTQtOCw3LjM4LDcuMzgsMCwwLDAsMC05Ljc4LDcuMzgsNy4zOCwwLDAsMC0uMjQtMTAsNjUuMTUsNjUuMTUsMCwxLDAtNzcuMSwwWk0xMjgsMjQzLjIybC0yNy4zLTEzLjI5SDE1NS4zWm0zNS42NS0xOC4yOUg5Mi4zNXYtMTRsMTYuMDcsMy4zYTIuNTIsMi41MiwwLDAsMCwxLDBMMTI4LDIxMC40MWwxOC41NywzLjgxYTIuNTEsMi41MSwwLDAsMCwxLDBsMTYuMDctMy4zWm0wLTE5LjEtMTYuNTgsMy40LTE4LjU3LTMuODFhMi41MiwyLjUyLDAsMCwwLTEsMGwtMTguNTcsMy44MS0xNi41Ny0zLjR2LTQzLjRoNzEuM1ptLTIuMzktNDguNEg5NC43NGEyLjM5LDIuMzksMCwwLDEtLjEtNC43N2g2Ni43MmEyLjM5LDIuMzksMCwwLDEtLjEsNC43N1ptMC05Ljc4SDk0Ljc0YTIuMzksMi4zOSwwLDAsMS0uMS00Ljc3aDY2LjcyYTIuMzksMi4zOSwwLDAsMS0uMSw0Ljc3Wm0wLTkuNzhIOTQuNzRhMi4zOSwyLjM5LDAsMCwxLS4xLTQuNzdoNjYuNzJhMi4zOSwyLjM5LDAsMCwxLS4xLDQuNzdaTTEwNiwxMjguMDZWNzIuMzdhNy4yNyw3LjI3LDAsMCwxLDEyLjc0LTQuOCwyLjU4LDIuNTgsMCwwLDAsMy43NSwwLDcuMjUsNy4yNSwwLDAsMSwxMC45MiwwLDIuNTgsMi41OCwwLDAsMCwzLjc1LDBBNy4yNyw3LjI3LDAsMCwxLDE1MCw3Mi4zN3Y1NS43Wk0xMjgsMTcuNjRhNjAuMTUsNjAuMTUsMCwwLDEsMzMsMTEwLjQzSDE1NVY3Mi4zN2ExMi4yNywxMi4yNywwLDAsMC0xOS42Mi05Ljg0LDEyLjI0LDEyLjI0LDAsMCwwLTE0LjY3LDBBMTIuMjcsMTIuMjcsMCwwLDAsMTAxLDcyLjM3djU1LjdIOTVBNjAuMTUsNjAuMTUsMCwwLDEsMTI4LDE3LjY0WiIvPjxwYXRoIGNsYXNzPSJjbHMtOCIgZD0iTTMyLjE0LDgwLjI4SDU1LjU3YTIuNSwyLjUsMCwwLDAsMC01SDMyLjE0YTIuNSwyLjUsMCwxLDAsMCw1WiIvPjxwYXRoIGNsYXNzPSJjbHMtOCIgZD0iTTIwMC40Myw4MC4yOGgyMy40M2EyLjUsMi41LDAsMCwwLDAtNUgyMDAuNDNhMi41LDIuNSwwLDAsMCwwLDVaIi8+PHBhdGggY2xhc3M9ImNscy04IiBkPSJNNzUsMTI3LjIzLDU4LjQ1LDE0My44QTIuNSwyLjUsMCwwLDAsNjIsMTQ3LjM0bDE2LjU3LTE2LjU3QTIuNSwyLjUsMCwwLDAsNzUsMTI3LjIzWiIvPjxwYXRoIGNsYXNzPSJjbHMtOCIgZD0iTTE4MSwyOC4zNGwxNi41Ny0xNi41N0EyLjUsMi41LDAsMCwwLDE5NCw4LjIzTDE3Ny40NSwyNC44QTIuNSwyLjUsMCwxLDAsMTgxLDI4LjM0WiIvPjxwYXRoIGNsYXNzPSJjbHMtOCIgZD0iTTE4MSwxMjcuMjNhMi41LDIuNSwwLDEsMC0zLjU0LDMuNTRMMTk0LDE0Ny4zNGEyLjUsMi41LDAsMCwwLDMuNTQtMy41NFoiLz48cGF0aCBjbGFzcz0iY2xzLTgiIGQ9Ik03NSwyOC4zNGEyLjUsMi41LDAsMCwwLDMuNTQtMy41NEw2Miw4LjIzYTIuNSwyLjUsMCwwLDAtMy41NCwzLjU0WiIvPjxwYXRoIGNsYXNzPSJjbHMtMSIgZD0iTTUyLjc1LDEyOS41N2gtNHYtNGExLDEsMCwwLDAtMiwwdjRoLTRhMSwxLDAsMCwwLDAsMmg0djRhMSwxLDAsMCwwLDIsMHYtNGg0YTEsMSwwLDAsMCwwLTJaIi8+PHBhdGggY2xhc3M9ImNscy0xIiBkPSJNMjI3LDE4MS41aC00di00YTEsMSwwLDAsMC0yLDB2NGgtNGExLDEsMCwwLDAsMCwyaDR2NGExLDEsMCwwLDAsMiwwdi00aDRhMSwxLDAsMCwwLDAtMloiLz48cGF0aCBjbGFzcz0iY2xzLTYiIGQ9Ik0xNzUuMTUsMTVoLTRWMTFhMSwxLDAsMCwwLTIsMHY0aC00YTEsMSwwLDAsMCwwLDJoNHY0YTEsMSwwLDAsMCwyLDBWMTdoNGExLDEsMCwwLDAsMC0yWiIvPjxwYXRoIGNsYXNzPSJjbHMtNiIgZD0iTTI5LjY0LDM1LjUyYTYsNiwwLDEsMSw2LTZBNiw2LDAsMCwxLDI5LjY0LDM1LjUyWm0wLTEwYTQsNCwwLDEsMCw0LDRBNCw0LDAsMCwwLDI5LjY0LDI1LjUyWiIvPjxwYXRoIGNsYXNzPSJjbHMtMSIgZD0iTTY4Ljg1LDIyMmE2LDYsMCwxLDEsNi02QTYsNiwwLDAsMSw2OC44NSwyMjJabTAtMTBhNCw0LDAsMSwwLDQsNEE0LDQsMCwwLDAsNjguODUsMjEyWiIvPjxwYXRoIGNsYXNzPSJjbHMtMSIgZD0iTTIyNi4zNiw0MWE2LDYsMCwxLDEsNi02QTYsNiwwLDAsMSwyMjYuMzYsNDFabTAtMTBhNCw0LDAsMSwwLDQsNEE0LDQsMCwwLDAsMjI2LjM2LDMxWiIvPjxwYXRoIGNsYXNzPSJjbHMtNiIgZD0iTTczLjg1LDE2NC42Mkg3MS4yN2wxLjgzLTEuODNhMSwxLDAsMCwwLTEuNDEtMS40MWwtMS44MywxLjgzdi0yLjU5YTEsMSwwLDAsMC0yLDB2Mi41OUw2NiwxNjEuMzhhMSwxLDAsMCwwLTEuNDEsMS40MWwxLjgzLDEuODNINjMuODVhMSwxLDAsMCwwLDAsMmgyLjU5bC0xLjgzLDEuODNBMSwxLDAsMCwwLDY2LDE2OS44Nkw2Ny44NSwxNjh2Mi41OWExLDEsMCwwLDAsMiwwVjE2OGwxLjgzLDEuODNhMSwxLDAsMCwwLDEuNDEtMS40MWwtMS44My0xLjgzaDIuNTlhMSwxLDAsMCwwLDAtMloiLz48cGF0aCBjbGFzcz0iY2xzLTYiIGQ9Ik0xODcuMTUsMTcwLjYyaC0yLjU5bDEuODMtMS44M2ExLDEsMCwwLDAtMS40MS0xLjQxbC0xLjgzLDEuODN2LTIuNTlhMSwxLDAsMCwwLTIsMHYyLjU5bC0xLjgzLTEuODNhMSwxLDAsMCwwLTEuNDEsMS40MWwxLjgzLDEuODNoLTIuNTlhMSwxLDAsMSwwLDAsMmgyLjU5bC0xLjgzLDEuODNhMSwxLDAsMCwwLDEuNDEsMS40MWwxLjgzLTEuODN2Mi41OWExLDEsMCwwLDAsMiwwVjE3NGwxLjgzLDEuODNhMSwxLDAsMCwwLDEuNDEtMS40MWwtMS44My0xLjgzaDIuNTlhMSwxLDAsMCwwLDAtMloiLz48cGF0aCBjbGFzcz0iY2xzLTYiIGQ9Ik0yMTQsMTA4LjgxaC0yLjU5bDEuODMtMS44M2ExLDEsMCwwLDAtMS40MS0xLjQxTDIxMCwxMDcuNHYtMi41OWExLDEsMCwwLDAtMiwwdjIuNTlsLTEuODMtMS44M2ExLDEsMCwwLDAtMS40MSwxLjQxbDEuODMsMS44M0gyMDRhMSwxLDAsMCwwLDAsMmgyLjU5bC0xLjgzLDEuODNhMSwxLDAsMCwwLDEuNDEsMS40MWwxLjgzLTEuODN2Mi41OWExLDEsMCwwLDAsMiwwdi0yLjU5bDEuODMsMS44M2ExLDEsMCwwLDAsMS40MS0xLjQxbC0xLjgzLTEuODNIMjE0YTEsMSwwLDAsMCwwLTJaIi8+PC9zdmc+;fontSize=20;" vertex="1" parent="1">
          <mxGeometry x="940" y="497.5" width="120" height="120" as="geometry" />
        </mxCell>
        <mxCell id="wSd2zqa3R8kVobw-JEVB-18" value="Augmentation Exposure&#xa;Measure" style="shape=image;verticalLabelPosition=bottom;labelBackgroundColor=none;verticalAlign=top;aspect=fixed;imageAspect=0;image=data:image/svg+xml,PHN2ZyB4bWxucz0iaHR0cDovL3d3dy53My5vcmcvMjAwMC9zdmciIGRhdGEtbmFtZT0iTGF5ZXIgMSIgaWQ9IkxheWVyXzEiIHZpZXdCb3g9IjAgMCAyNTYgMjU2Ij48ZGVmcz48c3R5bGU+LmNscy0xe2ZpbGw6IzQwYmRmZjt9LmNscy0ye2ZpbGw6IzIxOTdmNzt9LmNscy0ze2ZpbGw6I2VmZmFmZTt9LmNscy00e2ZpbGw6I2U0ZWJlZDt9LmNscy01e2ZpbGw6I2ZkMDt9LmNscy02e2ZpbGw6IzI2MzIzODt9PC9zdHlsZT48L2RlZnM+PHRpdGxlLz48cGF0aCBjbGFzcz0iY2xzLTEiIGQ9Ik0yMDguNDYsMTY0LjkyQTM5LjU0LDM5LjU0LDAsMSwwLDI0OCwyMDQuNDYsMzkuNTksMzkuNTksMCwwLDAsMjA4LjQ2LDE2NC45MlpNMTgwLDIxNi44NiwxOTMuODIsMjAzYTIsMiwwLDAsMSwxLjQxLS41OWgxNy42Mmw5LjgxLTkuODFoLTlhMiwyLDAsMCwxLDAtNGgxMy44MWEyLDIsMCwwLDEsMiwydjEzLjgxYTIsMiwwLDAsMS00LDB2LTlsLTEwLjQsMTAuNGEyLDIsMCwwLDEtMS40MS41OUgxOTYuMDZsLTEzLjIyLDEzLjIyYTIsMiwwLDAsMS0yLjgzLDBBMiwyLDAsMCwxLDE4MCwyMTYuODZaIi8+PHBhdGggY2xhc3M9ImNscy0xIiBkPSJNMTYsMjA0LjQ2YTM5LjU0LDM5LjU0LDAsMSwwLDM5LjU0LTM5LjU0QTM5LjU5LDM5LjU5LDAsMCwwLDE2LDIwNC40NlptNjUuNDQtOS4wOS03LjEzLDQuMTIuMDcuMzVhMjIuODcsMjIuODcsMCwwLDEsMCw5LjI0bC0uMDcuMzUsNy4xMyw0LjEyYTIsMiwwLDAsMSwuNzMsMi43M2wtNS4wNyw4Ljc5YTIsMiwwLDAsMS0yLjczLjczbC03LjE0LTQuMTItLjI3LjI0YTIzLjExLDIzLjExLDAsMCwxLTgsNC42MmwtLjM0LjExdjguMjVhMiwyLDAsMCwxLTIsMkg0Ni40N2EyLDIsMCwwLDEtMi0ydi04LjI1bC0uMzQtLjExYTIzLjEyLDIzLjEyLDAsMCwxLTgtNC42MmwtLjI3LS4yNC03LjE0LDQuMTJhMiwyLDAsMCwxLTIuNzMtLjczbC01LjA3LTguNzlhMiwyLDAsMCwxLC43My0yLjczbDcuMTMtNC4xMi0uMDctLjM1YTIyLjg3LDIyLjg3LDAsMCwxLDAtOS4yNGwuMDctLjM1LTcuMTMtNC4xMmEyLDIsMCwwLDEtLjczLTIuNzNMMjYsMTgzLjg1YTIsMiwwLDAsMSwyLjczLS43M2w3LjE0LDQuMTIuMjctLjI0YTIzLjA4LDIzLjA4LDAsMCwxLDgtNC42MmwuMzQtLjExVjE3NGEyLDIsMCwwLDEsMi0ySDU2LjYxYTIsMiwwLDAsMSwyLDJ2OC4yNWwuMzQuMTFBMjMuMDgsMjMuMDgsMCwwLDEsNjcsMTg3bC4yNy4yNCw3LjE0LTQuMTJhMiwyLDAsMCwxLDIuNzMuNzNsNS4wNyw4Ljc5QTIsMiwwLDAsMSw4MS40NCwxOTUuMzdaIi8+PHBhdGggY2xhc3M9ImNscy0yIiBkPSJNNTUuNTQsMTY0LjkyYTM5LjY5LDM5LjY5LDAsMCwwLTUsLjMzLDM5LjUzLDM5LjUzLDAsMCwxLDAsNzguNDMsMzkuNTQsMzkuNTQsMCwxLDAsNS03OC43NVoiLz48cGF0aCBjbGFzcz0iY2xzLTIiIGQ9Ik0yMDguNDYsMTY0LjkyYTM5LjY5LDM5LjY5LDAsMCwwLTUsLjMzLDM5LjUzLDM5LjUzLDAsMCwxLDAsNzguNDMsMzkuNTQsMzkuNTQsMCwxLDAsNS03OC43NVoiLz48cGF0aCBjbGFzcz0iY2xzLTMiIGQ9Ik0xMzQuODcsNjYuOTJoMGEyNy41NSwyNy41NSwwLDEsMC01Ljc0LDBaIi8+PHBhdGggY2xhc3M9ImNscy0zIiBkPSJNODEuMzUsMTEzLjE2VjEyNmg5OS4zMVYxMTMuMTZhNDIuMjgsNDIuMjgsMCwwLDAtNDIuMjMtNDIuMjNIMTIzLjU4QTQyLjI4LDQyLjI4LDAsMCwwLDgxLjM1LDExMy4xNloiLz48cGF0aCBjbGFzcz0iY2xzLTQiIGQ9Ik0xMzIsMTJhMjcuNjMsMjcuNjMsMCwwLDAtNCwuMjksMjcuNTMsMjcuNTMsMCwwLDEsMCw1NC40OGwxLjE0LjE1aDUuNzRBMjcuNTQsMjcuNTQsMCwwLDAsMTMyLDEyWiIvPjxwYXRoIGNsYXNzPSJjbHMtNCIgZD0iTTEzOC40Miw3MC45MmgtOGE0Mi4yOCw0Mi4yOCwwLDAsMSw0Mi4yMyw0Mi4yM1YxMjZoOFYxMTMuMTZBNDIuMjgsNDIuMjgsMCwwLDAsMTM4LjQyLDcwLjkyWiIvPjxwYXRoIGNsYXNzPSJjbHMtMSIgZD0iTTUxLjU0LDE5NS4zYTkuMTYsOS4xNiwwLDEsMCw5LjE2LDkuMTZBOS4xNyw5LjE3LDAsMCwwLDUxLjU0LDE5NS4zWiIvPjxwYXRoIGNsYXNzPSJjbHMtNSIgZD0iTTY3LjkxLDE5MS40NmEyLDIsMCwwLDEtMi40NC0uMzUsMTkuMjMsMTkuMjMsMCwwLDAtOS4zMy01LjM4LDIsMiwwLDAsMS0xLjUyLTEuOTRWMTc2SDQ4LjQ3djcuNzdhMiwyLDAsMCwxLTEuNTIsMS45NCwxOS4yMywxOS4yMywwLDAsMC05LjMzLDUuMzgsMiwyLDAsMCwxLTIuNDQuMzVsLTYuNzItMy44OC0zLjA3LDUuMzIsNi43MiwzLjg4YTIsMiwwLDAsMSwuOTIsMi4yOSwxOSwxOSwwLDAsMCwwLDEwLjc4LDIsMiwwLDAsMS0uOTIsMi4yOUwyNS4zOCwyMTZsMy4wNyw1LjMyLDYuNzItMy44OGEyLDIsMCwwLDEsMi40NC4zNSwxOS4yMywxOS4yMywwLDAsMCw5LjMzLDUuMzgsMiwyLDAsMCwxLDEuNTIsMS45NHY3Ljc2aDYuMTV2LTcuNzZhMiwyLDAsMCwxLDEuNTItMS45NCwxOS4yMywxOS4yMywwLDAsMCw5LjMzLTUuMzgsMiwyLDAsMCwxLDIuNDQtLjM1bDYuNzIsMy44OEw3Ny43MSwyMTYsNzEsMjEyLjE0YTIsMiwwLDAsMS0uOTItMi4yOSwxOSwxOSwwLDAsMCwwLTEwLjc4LDIsMiwwLDAsMSwuOTItMi4yOWw2LjcyLTMuODgtMy4wNy01LjMyWm0tMy4yMSwxM0ExMy4xNiwxMy4xNiwwLDEsMSw1MS41NCwxOTEuMywxMy4xOCwxMy4xOCwwLDAsMSw2NC43LDIwNC40NloiLz48cGF0aCBjbGFzcz0iY2xzLTYiIGQ9Ik0yMDQuNDYsMTYwLjQyYTQzLjg2LDQzLjg2LDAsMCwwLTI5LjMsMTEuMkwxMzQsMTMwLjVoNDUuNjJhMi41LDIuNSwwLDAsMCwyLjUtMi41VjExMy4xNmE0Ni44LDQ2LjgsMCwwLDAtMzguMDktNDUuOTIsMzIsMzIsMCwxLDAtMzIuMTMsMCw0Ni44LDQ2LjgsMCwwLDAtMzguMDksNDUuOTJWMTI4YTIuNSwyLjUsMCwwLDAsMi41LDIuNUgxMjJMODAuODUsMTcxLjYyYTQ0LjExLDQ0LjExLDAsMSwwLDMuNTQsMy41NEwxMjgsMTMxLjU0bDQzLjYyLDQzLjYyYTQ0LDQ0LDAsMSwwLDMyLjg0LTE0Ljc0Wm0tMTEzLjg4LDQ0YTM5LDM5LDAsMSwxLTM5LTM5QTM5LjA5LDM5LjA5LDAsMCwxLDkwLjU4LDIwNC40NlpNMTAxLDM5LjU0YTI3LDI3LDAsMSwxLDI5Ljg4LDI2Ljg5aC01LjY5QTI3LjA3LDI3LjA3LDAsMCwxLDEwMSwzOS41NFptLTIyLjEyLDg2VjExMy4xNmE0MS43OCw0MS43OCwwLDAsMSw0MS43My00MS43M2gxNC44NGE0MS43OCw0MS43OCwwLDAsMSw0MS43Myw0MS43M1YxMjUuNVptMTI1LjYxLDExOGEzOSwzOSwwLDEsMSwzOS0zOUEzOS4wOSwzOS4wOSwwLDAsMSwyMDQuNDYsMjQzLjVaIi8+PHBhdGggY2xhc3M9ImNscy02IiBkPSJNNTEuNTQsMTkwLjhBMTMuNjYsMTMuNjYsMCwxLDAsNjUuMiwyMDQuNDYsMTMuNjgsMTMuNjgsMCwwLDAsNTEuNTQsMTkwLjhabTAsMjIuMzJhOC42Niw4LjY2LDAsMSwxLDguNjYtOC42NkE4LjY3LDguNjcsMCwwLDEsNTEuNTQsMjEzLjEyWiIvPjxwYXRoIGNsYXNzPSJjbHMtNiIgZD0iTTc0LjEyLDE4Mi42OGwtNi44MywzLjk0YTIzLjY5LDIzLjY5LDAsMCwwLTguMTctNC43MlYxNzRhMi41LDIuNSwwLDAsMC0yLjUtMi41SDQ2LjQ3QTIuNSwyLjUsMCwwLDAsNDQsMTc0djcuODlhMjMuNjksMjMuNjksMCwwLDAtOC4xNyw0LjcyTDI5LDE4Mi42OGEyLjUsMi41LDAsMCwwLTMuNDIuOTJsLTUuMDcsOC43OWEyLjUsMi41LDAsMCwwLC45MiwzLjQybDYuODIsMy45NGEyMy4zNywyMy4zNywwLDAsMCwwLDkuNDRsLTYuODIsMy45NGEyLjUsMi41LDAsMCwwLS45MiwzLjQybDUuMDcsOC43OWEyLjUsMi41LDAsMCwwLDMuNDIuOTJsNi44My0zLjk0QTIzLjcxLDIzLjcxLDAsMCwwLDQ0LDIyN3Y3Ljg5YTIuNSwyLjUsMCwwLDAsMi41LDIuNUg1Ni42MWEyLjUsMi41LDAsMCwwLDIuNS0yLjVWMjI3YTIzLjcsMjMuNywwLDAsMCw4LjE3LTQuNzJsNi44MywzLjk0YTIuNSwyLjUsMCwwLDAsMy40Mi0uOTJsNS4wNy04Ljc5YTIuNSwyLjUsMCwwLDAtLjkyLTMuNDJsLTYuODItMy45NGEyMy4zNywyMy4zNywwLDAsMCwwLTkuNDRsNi44Mi0zLjk0YTIuNSwyLjUsMCwwLDAsLjkyLTMuNDJsLTUuMDctOC43OUEyLjUsMi41LDAsMCwwLDc0LjEyLDE4Mi42OFptLTMuMzgsMTMuNjdhMi41LDIuNSwwLDAsMC0xLjE1LDIuODYsMTguNTQsMTguNTQsMCwwLDEsMCwxMC41LDIuNSwyLjUsMCwwLDAsMS4xNSwyLjg2TDc3LDIxNi4ybC0yLjU3LDQuNDZMNjguMTYsMjE3YTIuNSwyLjUsMCwwLDAtMy4wNS40M0ExOC43NCwxOC43NCwwLDAsMSw1NiwyMjIuNzFhMi41LDIuNSwwLDAsMC0xLjkxLDIuNDN2Ny4yNkg0OXYtNy4yNmEyLjUsMi41LDAsMCwwLTEuOTEtMi40M0ExOC43NCwxOC43NCwwLDAsMSwzOCwyMTcuNDZhMi41LDIuNSwwLDAsMC0zLjA1LS40M2wtNi4yOSwzLjYzLTIuNTctNC40Niw2LjI4LTMuNjNhMi41LDIuNSwwLDAsMCwxLjE1LTIuODYsMTguNTUsMTguNTUsMCwwLDEsMC0xMC41LDIuNSwyLjUsMCwwLDAtMS4xNS0yLjg2bC02LjI4LTMuNjMsMi41Ny00LjQ2LDYuMjksMy42M2EyLjUsMi41LDAsMCwwLDMuMDUtLjQzLDE4LjczLDE4LjczLDAsMCwxLDkuMDktNS4yNEEyLjUsMi41LDAsMCwwLDQ5LDE4My43OXYtNy4yN2g1LjE1djcuMjdBMi41LDIuNSwwLDAsMCw1NiwxODYuMjFhMTguNzMsMTguNzMsMCwwLDEsOS4wOSw1LjI0LDIuNSwyLjUsMCwwLDAsMy4wNS40M2w2LjI5LTMuNjNMNzcsMTkyLjcyWiIvPjxwYXRoIGNsYXNzPSJjbHMtNiIgZD0iTTIyNy41LDE4OC4xNUgyMTMuNjhhMi41LDIuNSwwLDAsMCwwLDVoNy43N0wyMTIuNjUsMjAySDE5NS4yM2EyLjUsMi41LDAsMCwwLTEuNzcuNzNMMTc5LjY2LDIxNi41YTIuNSwyLjUsMCwxLDAsMy41NCwzLjU0TDE5Ni4yNywyMDdoMTcuNDFhMi41LDIuNSwwLDAsMCwxLjc3LS43M2w5LjU0LTkuNTR2Ny43N2EyLjUsMi41LDAsMCwwLDUsMFYxOTAuNjVBMi41LDIuNSwwLDAsMCwyMjcuNSwxODguMTVaIi8+PHBhdGggY2xhc3M9ImNscy01IiBkPSJNMjEzLjQ2LDMzLjY0aC00di00YTEsMSwwLDAsMC0yLDB2NGgtNGExLDEsMCwwLDAsMCwyaDR2NGExLDEsMCwwLDAsMiwwdi00aDRhMSwxLDAsMCwwLDAtMloiLz48cGF0aCBjbGFzcz0iY2xzLTUiIGQ9Ik01NS43LDEzMWgtNHYtNGExLDEsMCwwLDAtMiwwdjRoLTRhMSwxLDAsMCwwLDAsMmg0djRhMSwxLDAsMCwwLDIsMHYtNGg0YTEsMSwwLDAsMCwwLTJaIi8+PHBhdGggY2xhc3M9ImNscy0xIiBkPSJNNzYuMiw3Mi40OWgtNHYtNGExLDEsMCwwLDAtMiwwdjRoLTRhMSwxLDAsMCwwLDAsMmg0djRhMSwxLDAsMCwwLDIsMHYtNGg0YTEsMSwwLDAsMCwwLTJaIi8+PHBhdGggY2xhc3M9ImNscy0xIiBkPSJNMTQ4LjgzLDIzNGgtNHYtNGExLDEsMCwwLDAtMiwwdjRoLTRhMSwxLDAsMCwwLDAsMmg0djRhMSwxLDAsMSwwLDIsMHYtNGg0YTEsMSwwLDAsMCwwLTJaIi8+PHBhdGggY2xhc3M9ImNscy0xIiBkPSJNMjAwLDk0LjQ5YTYsNiwwLDEsMSw2LTZBNiw2LDAsMCwxLDIwMCw5NC40OVptMC0xMGE0LDQsMCwxLDAsNCw0QTQsNCwwLDAsMCwyMDAsODQuNDlaIi8+PHBhdGggY2xhc3M9ImNscy0xIiBkPSJNMTc0LjkyLDI2YTYsNiwwLDEsMSw2LTZBNiw2LDAsMCwxLDE3NC45MiwyNlptMC0xMGE0LDQsMCwxLDAsNCw0QTQsNCwwLDAsMCwxNzQuOTIsMTZaIi8+PHBhdGggY2xhc3M9ImNscy01IiBkPSJNMTEyLDE5MmE2LDYsMCwxLDEsNi02QTYsNiwwLDAsMSwxMTIsMTkyWm0wLTEwYTQsNCwwLDEsMCw0LDRBNCw0LDAsMCwwLDExMiwxODJaIi8+PHBhdGggY2xhc3M9ImNscy0xIiBkPSJNMjA3LjQ2LDE0MC40NmgtMi41OWwxLjgzLTEuODNhMSwxLDAsMCwwLTEuNDEtMS40MUwyMDMuNDYsMTM5di0yLjU5YTEsMSwwLDEsMC0yLDBWMTM5bC0xLjgzLTEuODNhMSwxLDAsMCwwLTEuNDEsMS40MWwxLjgzLDEuODNoLTIuNTlhMSwxLDAsMCwwLDAsMkgyMDBsLTEuODMsMS44M2ExLDEsMCwwLDAsMS40MSwxLjQxbDEuODMtMS44M3YyLjU5YTEsMSwwLDAsMCwyLDB2LTIuNTlsMS44MywxLjgzYTEsMSwwLDAsMCwxLjQxLTEuNDFsLTEuODMtMS44M2gyLjU5YTEsMSwwLDAsMCwwLTJaIi8+PC9zdmc+;fontSize=20;align=center;" vertex="1" parent="1">
          <mxGeometry x="940" y="202.5" width="120" height="120" as="geometry" />
        </mxCell>
        <mxCell id="wSd2zqa3R8kVobw-JEVB-20" value="Corpus of &#xa;Patent Data" style="shape=image;verticalLabelPosition=bottom;labelBackgroundColor=default;verticalAlign=top;aspect=fixed;imageAspect=0;image=data:image/svg+xml,PHN2ZyB4bWxucz0iaHR0cDovL3d3dy53My5vcmcvMjAwMC9zdmciIGRhdGEtbmFtZT0iTGF5ZXIgMSIgaWQ9IkxheWVyXzEiIHZpZXdCb3g9IjAgMCAyNTYgMjU2Ij48ZGVmcz48c3R5bGU+LmNscy0xe2ZpbGw6IzQwYmRmZjt9LmNscy0ye2ZpbGw6IzIxOTdmNzt9LmNscy0ze2ZpbGw6I2VmZmFmZTt9LmNscy00e2ZpbGw6I2U0ZWJlZDt9LmNscy01e2ZpbGw6IzI2MzIzODt9LmNscy02e2ZpbGw6I2ZkMDt9PC9zdHlsZT48L2RlZnM+PHRpdGxlLz48cGF0aCBjbGFzcz0iY2xzLTEiIGQ9Ik05OC4yNiwzOS4xMlY1Mi40QTYuNjksNi42OSwwLDAsMCwxMDUsNTkuMDhoNTIuMWE2LjY5LDYuNjksMCwwLDAsNi42OS02LjY4VjM5LjEyYTYuNyw2LjcsMCwwLDAtNi42OS02LjY5LDEwLjY3LDEwLjY3LDAsMCwxLTEwLjY4LTEwLjY4VjE4LjY4QTYuNjksNi42OSwwLDAsMCwxMzkuNjgsMTJIMTIyLjMyYTYuNjksNi42OSwwLDAsMC02LjY5LDYuNjh2My4wN0ExMC42OSwxMC42OSwwLDAsMSwxMDUsMzIuNDMsNi42OSw2LjY5LDAsMCwwLDk4LjI2LDM5LjEyWiIvPjxwYXRoIGNsYXNzPSJjbHMtMiIgZD0iTTE1Ny4wNSwzMi40M2ExMC42NywxMC42NywwLDAsMS0xMC42OC0xMC42OFYxOC42OEE2LjY5LDYuNjksMCwwLDAsMTM5LjY4LDEyaC04YTYuNjksNi42OSwwLDAsMSw2LjY5LDYuNjh2My4wN2ExMC42NywxMC42NywwLDAsMCwxMC42OCwxMC42OCw2LjcsNi43LDAsMCwxLDYuNjksNi42OVY1Mi40YTYuNjksNi42OSwwLDAsMS02LjY5LDYuNjhoOGE2LjY5LDYuNjksMCwwLDAsNi42OS02LjY4VjM5LjEyQTYuNyw2LjcsMCwwLDAsMTU3LjA1LDMyLjQzWiIvPjxwYXRoIGNsYXNzPSJjbHMtMyIgZD0iTTYzLjMxLDI0NEgxOTcuNjlhOCw4LDAsMCwwLDgtOFY1NS43NmE4LDgsMCwwLDAtOC04SDE2NC43NFY1Mi40YTEwLjcsMTAuNywwLDAsMS0xMC42OSwxMC42OEgxMDJBMTAuNywxMC43LDAsMCwxLDkxLjI2LDUyLjRWNDcuNzZoLTI4YTgsOCwwLDAsMC04LDhWMjM2QTgsOCwwLDAsMCw2My4zMSwyNDRaTTk0LjcyLDc0LjUxYTIsMiwwLDAsMSwwLDIuODNsLTIwLDIwYTIsMiwwLDAsMS0yLjgzLDBsLTEwLTEwYTIsMiwwLDAsMSwyLjgzLTIuODNsOC41OSw4LjU5TDkxLjksNzQuNTFBMiwyLDAsMCwxLDk0LjcyLDc0LjUxWm0tMzAsNDAsOC41OSw4LjU5TDkxLjksMTA0LjUxYTIsMiwwLDAsMSwyLjgzLDIuODNsLTIwLDIwYTIsMiwwLDAsMS0yLjgzLDBsLTEwLTEwYTIsMiwwLDAsMSwyLjgzLTIuODNabTAsMzAsOC41OSw4LjU5TDkxLjksMTM0LjUxYTIsMiwwLDAsMSwyLjgzLDIuODNsLTIwLDIwYTIsMiwwLDAsMS0yLjgzLDBsLTEwLTEwYTIsMiwwLDAsMSwyLjgzLTIuODNabTAsMzAsOC41OSw4LjU5TDkxLjksMTY0LjUxYTIsMiwwLDAsMSwyLjgzLDIuODNsLTIwLDIwYTIsMiwwLDAsMS0yLjgzLDBsLTEwLTEwYTIsMiwwLDAsMSwyLjgzLTIuODNabTAsMjkuOTJMNzMuMzEsMjEzLDkxLjksMTk0LjQzYTIsMiwwLDAsMSwyLjgzLDIuODNsLTIwLDIwYTIsMiwwLDAsMS0yLjgzLDBsLTEwLTEwYTIsMiwwLDAsMSwyLjgzLTIuODNabTEyOC0xMTYuNTFIMTA4LjI2YTIsMiwwLDAsMSwwLTRoODQuNDNhMiwyLDAsMCwxLDAsNFptLTg0LjQzLDI2aDg0LjQzYTIsMiwwLDAsMSwwLDRIMTA4LjI2YTIsMiwwLDAsMSwwLTRabTAsMzBoODQuNDNhMiwyLDAsMCwxLDAsNEgxMDguMjZhMiwyLDAsMSwxLDAtNFptMCwzMGg4NC40M2EyLDIsMCwwLDEsMCw0SDEwOC4yNmEyLDIsMCwxLDEsMC00Wm0wLDI5LjkyaDg0LjQzYTIsMiwwLDAsMSwwLDRIMTA4LjI2YTIsMiwwLDEsMSwwLTRaIi8+PHBhdGggY2xhc3M9ImNscy00IiBkPSJNMTk3LjY5LDQ3Ljc2aC01YTgsOCwwLDAsMSw4LDhWMjM2YTgsOCwwLDAsMS04LDhoNWE4LDgsMCwwLDAsOC04VjU1Ljc2QTgsOCwwLDAsMCwxOTcuNjksNDcuNzZaIi8+PHBhdGggY2xhc3M9ImNscy01IiBkPSJNMTM2LjY4LDcuNUgxMTkuMzJhMTEuMiwxMS4yLDAsMCwwLTExLjE5LDExLjE4djMuMDdBNi4xOSw2LjE5LDAsMCwxLDEwMiwyNy45MywxMS4xOCwxMS4xOCwwLDAsMCw5MC43NiwzOS4xMnY0LjE0SDU4LjMxYTEyLjUxLDEyLjUxLDAsMCwwLTEyLjUsMTIuNVYyMzZhMTIuNTEsMTIuNTEsMCwwLDAsMTIuNSwxMi41SDE5Ny42OWExMi41MSwxMi41MSwwLDAsMCwxMi41LTEyLjVWNTUuNzZhMTIuNTEsMTIuNTEsMCwwLDAtMTIuNS0xMi41SDE2NS4yNFYzOS4xMmExMS4yLDExLjIsMCwwLDAtMTEuMTktMTEuMTksNi4xNyw2LjE3LDAsMCwxLTYuMTgtNi4xOFYxOC42OEExMS4yLDExLjIsMCwwLDAsMTM2LjY4LDcuNVptMjguNTYsNDQuOVY0OC4yNmgzMi40NWE3LjUxLDcuNTEsMCwwLDEsNy41LDcuNVYyMzZhNy41MSw3LjUxLDAsMCwxLTcuNSw3LjVINTguMzFhNy41MSw3LjUxLDAsMCwxLTcuNS03LjVWNTUuNzZhNy41MSw3LjUxLDAsMCwxLDcuNS03LjVIOTAuNzZWNTIuNEExMS4yLDExLjIsMCwwLDAsMTAyLDYzLjU4aDUyLjFBMTEuMiwxMS4yLDAsMCwwLDE2NS4yNCw1Mi40Wk0xNTQuMDUsMzIuOTNhNi4yLDYuMiwwLDAsMSw2LjE5LDYuMTlWNTIuNGE2LjE5LDYuMTksMCwwLDEtNi4xOSw2LjE4SDEwMmE2LjE5LDYuMTksMCwwLDEtNi4xOS02LjE4VjM5LjEyQTYuMTksNi4xOSwwLDAsMSwxMDIsMzIuOTNhMTEuMTksMTEuMTksMCwwLDAsMTEuMTgtMTEuMThWMTguNjhhNi4xOSw2LjE5LDAsMCwxLDYuMTktNi4xOGgxNy4zNmE2LjE5LDYuMTksMCwwLDEsNi4xOSw2LjE4djMuMDdhMTEuMTcsMTEuMTcsMCwwLDAsMTEuMTgsMTEuMThaIi8+PHBhdGggY2xhc3M9ImNscy01IiBkPSJNOTEuNTQsNzQuMTUsNzMuMzEsOTIuMzhsLTguMjMtOC4yM2EyLjUsMi41LDAsMCwwLTMuNTQsMy41NGwxMCwxMGEyLjUsMi41LDAsMCwwLDMuNTQsMGwyMC0yMGEyLjUsMi41LDAsMCwwLTMuNTQtMy41NFoiLz48cGF0aCBjbGFzcz0iY2xzLTUiIGQ9Ik0xMDUuNzYsODUuOTJhMi41LDIuNSwwLDAsMCwyLjUsMi41aDg0LjQzYTIuNSwyLjUsMCwwLDAsMC01SDEwOC4yNkEyLjUsMi41LDAsMCwwLDEwNS43Niw4NS45MloiLz48cGF0aCBjbGFzcz0iY2xzLTUiIGQ9Ik05MS41NCwxMDQuMTUsNzMuMzEsMTIyLjM4bC04LjIzLTguMjNhMi41LDIuNSwwLDEsMC0zLjU0LDMuNTRsMTAsMTBhMi41LDIuNSwwLDAsMCwzLjU0LDBsMjAtMjBhMi41LDIuNSwwLDEsMC0zLjU0LTMuNTRaIi8+PHBhdGggY2xhc3M9ImNscy01IiBkPSJNMTkyLjY5LDExMy40MkgxMDguMjZhMi41LDIuNSwwLDAsMCwwLDVoODQuNDNhMi41LDIuNSwwLDAsMCwwLTVaIi8+PHBhdGggY2xhc3M9ImNscy01IiBkPSJNOTEuNTQsMTM0LjE1LDczLjMxLDE1Mi4zOGwtOC4yMy04LjIzYTIuNSwyLjUsMCwwLDAtMy41NCwzLjU0bDEwLDEwYTIuNSwyLjUsMCwwLDAsMy41NCwwbDIwLTIwYTIuNSwyLjUsMCwwLDAtMy41NC0zLjU0WiIvPjxwYXRoIGNsYXNzPSJjbHMtNSIgZD0iTTE5Mi42OSwxNDMuNDJIMTA4LjI2YTIuNSwyLjUsMCwxLDAsMCw1aDg0LjQzYTIuNSwyLjUsMCwwLDAsMC01WiIvPjxwYXRoIGNsYXNzPSJjbHMtNSIgZD0iTTkxLjU0LDE2NC4xNSw3My4zMSwxODIuMzhsLTguMjMtOC4yM2EyLjUsMi41LDAsMCwwLTMuNTQsMy41NGwxMCwxMGEyLjUsMi41LDAsMCwwLDMuNTQsMGwyMC0yMGEyLjUsMi41LDAsMCwwLTMuNTQtMy41NFoiLz48cGF0aCBjbGFzcz0iY2xzLTUiIGQ9Ik0xOTIuNjksMTczLjQySDEwOC4yNmEyLjUsMi41LDAsMSwwLDAsNWg4NC40M2EyLjUsMi41LDAsMCwwLDAtNVoiLz48cGF0aCBjbGFzcz0iY2xzLTUiIGQ9Ik05MS41NCwxOTQuMDcsNzMuMzEsMjEyLjNsLTguMjMtOC4yM2EyLjUsMi41LDAsMCwwLTMuNTQsMy41NGwxMCwxMGEyLjUsMi41LDAsMCwwLDMuNTQsMGwyMC0yMGEyLjUsMi41LDAsMSwwLTMuNTQtMy41NFoiLz48cGF0aCBjbGFzcz0iY2xzLTUiIGQ9Ik0xOTIuNjksMjAzLjM0SDEwOC4yNmEyLjUsMi41LDAsMSwwLDAsNWg4NC40M2EyLjUsMi41LDAsMCwwLDAtNVoiLz48cGF0aCBjbGFzcz0iY2xzLTEiIGQ9Ik0yMzUsMjAwLjg0aC00di00YTEsMSwwLDAsMC0yLDB2NGgtNGExLDEsMCwwLDAsMCwyaDR2NGExLDEsMCwwLDAsMiwwdi00aDRhMSwxLDAsMCwwLDAtMloiLz48cGF0aCBjbGFzcz0iY2xzLTEiIGQ9Ik0xODIuNzUsMzQuNjhhNiw2LDAsMSwxLDYtNkE2LDYsMCwwLDEsMTgyLjc1LDM0LjY4Wm0wLTEwYTQsNCwwLDEsMCw0LDRBNCw0LDAsMCwwLDE4Mi43NSwyNC42OFoiLz48cGF0aCBjbGFzcz0iY2xzLTYiIGQ9Ik0yMzAsODkuNDJhNiw2LDAsMSwxLDYtNkE2LDYsMCwwLDEsMjMwLDg5LjQyWm0wLTEwYTQsNCwwLDEsMCw0LDRBNCw0LDAsMCwwLDIzMCw3OS40MloiLz48cGF0aCBjbGFzcz0iY2xzLTEiIGQ9Ik0zOSwxNTQuMzVIMzYuNDFsMS44My0xLjgzYTEsMSwwLDAsMC0xLjQxLTEuNDFMMzUsMTUyLjk0di0yLjU5YTEsMSwwLDAsMC0yLDB2Mi41OWwtMS44My0xLjgzYTEsMSwwLDAsMC0xLjQxLDEuNDFsMS44MywxLjgzSDI5YTEsMSwwLDAsMCwwLDJoMi41OWwtMS44MywxLjgzYTEsMSwwLDAsMCwxLjQxLDEuNDFMMzMsMTU3Ljc3djIuNTlhMSwxLDAsMCwwLDIsMHYtMi41OWwxLjgzLDEuODNhMSwxLDAsMCwwLDEuNDEtMS40MWwtMS44My0xLjgzSDM5YTEsMSwwLDAsMCwwLTJaIi8+PC9zdmc+;fontSize=20;" vertex="1" parent="1">
          <mxGeometry x="365" y="350" width="120" height="120" as="geometry" />
        </mxCell>
        <mxCell id="wSd2zqa3R8kVobw-JEVB-21" value="" style="endArrow=classic;html=1;rounded=0;fontSize=20;entryX=0;entryY=0.5;entryDx=0;entryDy=0;" edge="1" parent="1" target="wSd2zqa3R8kVobw-JEVB-23">
          <mxGeometry width="50" height="50" relative="1" as="geometry">
            <mxPoint x="370" y="640" as="sourcePoint" />
            <mxPoint x="490" y="680" as="targetPoint" />
          </mxGeometry>
        </mxCell>
        <mxCell id="wSd2zqa3R8kVobw-JEVB-22" value="" style="endArrow=classic;html=1;rounded=0;fontSize=20;entryX=0;entryY=0.5;entryDx=0;entryDy=0;exitX=1;exitY=0.5;exitDx=0;exitDy=0;" edge="1" parent="1" source="wSd2zqa3R8kVobw-JEVB-20" target="wSd2zqa3R8kVobw-JEVB-26">
          <mxGeometry width="50" height="50" relative="1" as="geometry">
            <mxPoint x="570" y="50" as="sourcePoint" />
            <mxPoint x="780" y="110" as="targetPoint" />
          </mxGeometry>
        </mxCell>
        <mxCell id="wSd2zqa3R8kVobw-JEVB-23" value="Measure of&#xa;Similarity" style="shape=image;verticalLabelPosition=bottom;labelBackgroundColor=none;verticalAlign=top;aspect=fixed;imageAspect=0;image=data:image/svg+xml,PHN2ZyB4bWxucz0iaHR0cDovL3d3dy53My5vcmcvMjAwMC9zdmciIGRhdGEtbmFtZT0iTGF5ZXIgMSIgaWQ9IkxheWVyXzEiIHZpZXdCb3g9IjAgMCAyNTYgMjU2Ij48ZGVmcz48c3R5bGU+LmNscy0xe2ZpbGw6I2VmZmFmZTt9LmNscy0ye2ZpbGw6I2U0ZWJlZDt9LmNscy0ze2ZpbGw6IzI2MzIzODt9LmNscy00e2ZpbGw6I2ZkMDt9LmNscy01e2ZpbGw6IzQwYmRmZjt9PC9zdHlsZT48L2RlZnM+PHRpdGxlLz48cGF0aCBjbGFzcz0iY2xzLTEiIGQ9Ik05MS4xLDEzNS45djEwLjMzaDgxLjhWMTM1LjlhMzQuNzcsMzQuNzcsMCwwLDAtMzQuNzMtMzQuNzNIMTI1Ljg0QTM0Ljc3LDM0Ljc3LDAsMCwwLDkxLjEsMTM1LjlaIi8+PHBhdGggY2xhc3M9ImNscy0xIiBkPSJNMTM0LjM2LDk3LjE2aDBhMjIuNTQsMjIuNTQsMCwxLDAtNC43MiwwWiIvPjxwYXRoIGNsYXNzPSJjbHMtMiIgZD0iTTEzOC4xNiwxMDEuMTZoLTlBMzQuNzcsMzQuNzcsMCwwLDEsMTYzLjksMTM1Ljl2MTAuMzNoOVYxMzUuOUEzNC43NywzNC43NywwLDAsMCwxMzguMTYsMTAxLjE2WiIvPjxwYXRoIGNsYXNzPSJjbHMtMiIgZD0iTTEzMiw1Mi4yMmEyMi41NSwyMi41NSwwLDAsMC00LjUuNDUsMjIuNTMsMjIuNTMsMCwwLDEsMCw0NC4xNXExLjA2LjIxLDIuMTUuMzNoNC43MkEyMi41MywyMi41MywwLDAsMCwxMzIsNTIuMjJaIi8+PHBhdGggY2xhc3M9ImNscy0zIiBkPSJNMjQ2LDg4LjE3SDIyNmEyLjUsMi41LDAsMCwwLDAsNWgxNGwtNTIuNTUsNTIuNTVoLTE0VjEzNS45YTM5LjMsMzkuMywwLDAsMC0zMC45MS0zOC4zNCwyNywyNywwLDEsMC0yOSwwQTM5LjMsMzkuMywwLDAsMCw4Mi42LDEzNS45djkuODNINjcuNTVhMi41LDIuNSwwLDAsMC0xLjc3LjczTDguMjMsMjA0YTIuNSwyLjUsMCwxLDAsMy41NCwzLjU0bDU2LjgyLTU2LjgySDE4OC40NWEyLjUsMi41LDAsMCwwLDEuNzctLjczTDI0My41LDk2LjcxdjE0YTIuNSwyLjUsMCwwLDAsNSwwdi0yMEEyLjUsMi41LDAsMCwwLDI0Niw4OC4xN1pNMTA2LDc0Ljc2YTIyLDIyLDAsMSwxLDI0LjM3LDIxLjkxaC00LjY3QTIyLjA2LDIyLjA2LDAsMCwxLDEwNiw3NC43NlptNjIuNDMsNzFIODcuNlYxMzUuOWEzNC4yNywzNC4yNywwLDAsMSwzNC4yMy0zNC4yM2gxMi4zM0EzNC4yNywzNC4yNywwLDAsMSwxNjguNCwxMzUuOVoiLz48cGF0aCBjbGFzcz0iY2xzLTQiIGQ9Ik0xNjUsMzloLTRWMzVhMSwxLDAsMCwwLTIsMHY0aC00YTEsMSwwLDAsMCwwLDJoNHY0YTEsMSwwLDAsMCwyLDBWNDFoNGExLDEsMCwwLDAsMC0yWiIvPjxwYXRoIGNsYXNzPSJjbHMtNSIgZD0iTTExNi42NywxNzUuODloLTR2LTRhMSwxLDAsMCwwLTIsMHY0aC00YTEsMSwwLDEsMCwwLDJoNHY0YTEsMSwwLDAsMCwyLDB2LTRoNGExLDEsMCwwLDAsMC0yWiIvPjxwYXRoIGNsYXNzPSJjbHMtNCIgZD0iTTIxMSwxNjkuODloLTR2LTRhMSwxLDAsMCwwLTIsMHY0aC00YTEsMSwwLDAsMCwwLDJoNHY0YTEsMSwwLDEsMCwyLDB2LTRoNGExLDEsMCwwLDAsMC0yWiIvPjxwYXRoIGNsYXNzPSJjbHMtNSIgZD0iTTcyLjY3LDc2aC00VjcyYTEsMSwwLDAsMC0yLDB2NGgtNGExLDEsMCwwLDAsMCwyaDR2NGExLDEsMCwwLDAsMiwwVjc4aDRhMSwxLDAsMSwwLDAtMloiLz48cGF0aCBjbGFzcz0iY2xzLTUiIGQ9Ik0yMDYsMTA1LjExYTYsNiwwLDEsMSw2LTZBNiw2LDAsMCwxLDIwNiwxMDUuMTFabTAtMTBhNCw0LDAsMSwwLDQsNEE0LDQsMCwwLDAsMjA2LDk1LjExWiIvPjxwYXRoIGNsYXNzPSJjbHMtNSIgZD0iTTUzLDEzN0g1MC40MWwxLjgzLTEuODNhMSwxLDAsMCwwLTEuNDEtMS40MUw0OSwxMzUuNTlWMTMzYTEsMSwwLDAsMC0yLDB2Mi41OWwtMS44My0xLjgzYTEsMSwwLDAsMC0xLjQxLDEuNDFMNDUuNTksMTM3SDQzYTEsMSwwLDAsMCwwLDJoMi41OWwtMS44MywxLjgzYTEsMSwwLDAsMCwxLjQxLDEuNDFMNDcsMTQwLjQxVjE0M2ExLDEsMCwwLDAsMiwwdi0yLjU5bDEuODMsMS44M2ExLDEsMCwwLDAsMS40MS0xLjQxTDUwLjQxLDEzOUg1M2ExLDEsMCwwLDAsMC0yWiIvPjwvc3ZnPg==;fontSize=20;" vertex="1" parent="1">
          <mxGeometry x="620" y="492.5" width="130" height="130" as="geometry" />
        </mxCell>
        <mxCell id="wSd2zqa3R8kVobw-JEVB-25" value="" style="endArrow=classic;html=1;rounded=0;fontSize=20;exitX=1;exitY=0.5;exitDx=0;exitDy=0;entryX=0;entryY=0.25;entryDx=0;entryDy=0;" edge="1" parent="1" source="wSd2zqa3R8kVobw-JEVB-20" target="wSd2zqa3R8kVobw-JEVB-23">
          <mxGeometry width="50" height="50" relative="1" as="geometry">
            <mxPoint x="380" y="650" as="sourcePoint" />
            <mxPoint x="610" y="630.5084745762713" as="targetPoint" />
          </mxGeometry>
        </mxCell>
        <mxCell id="wSd2zqa3R8kVobw-JEVB-26" value="Measure of&#xa;Similarity" style="shape=image;verticalLabelPosition=bottom;labelBackgroundColor=none;verticalAlign=top;aspect=fixed;imageAspect=0;image=data:image/svg+xml,PHN2ZyB4bWxucz0iaHR0cDovL3d3dy53My5vcmcvMjAwMC9zdmciIGRhdGEtbmFtZT0iTGF5ZXIgMSIgaWQ9IkxheWVyXzEiIHZpZXdCb3g9IjAgMCAyNTYgMjU2Ij48ZGVmcz48c3R5bGU+LmNscy0xe2ZpbGw6I2VmZmFmZTt9LmNscy0ye2ZpbGw6I2U0ZWJlZDt9LmNscy0ze2ZpbGw6IzI2MzIzODt9LmNscy00e2ZpbGw6I2ZkMDt9LmNscy01e2ZpbGw6IzQwYmRmZjt9PC9zdHlsZT48L2RlZnM+PHRpdGxlLz48cGF0aCBjbGFzcz0iY2xzLTEiIGQ9Ik05MS4xLDEzNS45djEwLjMzaDgxLjhWMTM1LjlhMzQuNzcsMzQuNzcsMCwwLDAtMzQuNzMtMzQuNzNIMTI1Ljg0QTM0Ljc3LDM0Ljc3LDAsMCwwLDkxLjEsMTM1LjlaIi8+PHBhdGggY2xhc3M9ImNscy0xIiBkPSJNMTM0LjM2LDk3LjE2aDBhMjIuNTQsMjIuNTQsMCwxLDAtNC43MiwwWiIvPjxwYXRoIGNsYXNzPSJjbHMtMiIgZD0iTTEzOC4xNiwxMDEuMTZoLTlBMzQuNzcsMzQuNzcsMCwwLDEsMTYzLjksMTM1Ljl2MTAuMzNoOVYxMzUuOUEzNC43NywzNC43NywwLDAsMCwxMzguMTYsMTAxLjE2WiIvPjxwYXRoIGNsYXNzPSJjbHMtMiIgZD0iTTEzMiw1Mi4yMmEyMi41NSwyMi41NSwwLDAsMC00LjUuNDUsMjIuNTMsMjIuNTMsMCwwLDEsMCw0NC4xNXExLjA2LjIxLDIuMTUuMzNoNC43MkEyMi41MywyMi41MywwLDAsMCwxMzIsNTIuMjJaIi8+PHBhdGggY2xhc3M9ImNscy0zIiBkPSJNMjQ2LDg4LjE3SDIyNmEyLjUsMi41LDAsMCwwLDAsNWgxNGwtNTIuNTUsNTIuNTVoLTE0VjEzNS45YTM5LjMsMzkuMywwLDAsMC0zMC45MS0zOC4zNCwyNywyNywwLDEsMC0yOSwwQTM5LjMsMzkuMywwLDAsMCw4Mi42LDEzNS45djkuODNINjcuNTVhMi41LDIuNSwwLDAsMC0xLjc3LjczTDguMjMsMjA0YTIuNSwyLjUsMCwxLDAsMy41NCwzLjU0bDU2LjgyLTU2LjgySDE4OC40NWEyLjUsMi41LDAsMCwwLDEuNzctLjczTDI0My41LDk2LjcxdjE0YTIuNSwyLjUsMCwwLDAsNSwwdi0yMEEyLjUsMi41LDAsMCwwLDI0Niw4OC4xN1pNMTA2LDc0Ljc2YTIyLDIyLDAsMSwxLDI0LjM3LDIxLjkxaC00LjY3QTIyLjA2LDIyLjA2LDAsMCwxLDEwNiw3NC43NlptNjIuNDMsNzFIODcuNlYxMzUuOWEzNC4yNywzNC4yNywwLDAsMSwzNC4yMy0zNC4yM2gxMi4zM0EzNC4yNywzNC4yNywwLDAsMSwxNjguNCwxMzUuOVoiLz48cGF0aCBjbGFzcz0iY2xzLTQiIGQ9Ik0xNjUsMzloLTRWMzVhMSwxLDAsMCwwLTIsMHY0aC00YTEsMSwwLDAsMCwwLDJoNHY0YTEsMSwwLDAsMCwyLDBWNDFoNGExLDEsMCwwLDAsMC0yWiIvPjxwYXRoIGNsYXNzPSJjbHMtNSIgZD0iTTExNi42NywxNzUuODloLTR2LTRhMSwxLDAsMCwwLTIsMHY0aC00YTEsMSwwLDEsMCwwLDJoNHY0YTEsMSwwLDAsMCwyLDB2LTRoNGExLDEsMCwwLDAsMC0yWiIvPjxwYXRoIGNsYXNzPSJjbHMtNCIgZD0iTTIxMSwxNjkuODloLTR2LTRhMSwxLDAsMCwwLTIsMHY0aC00YTEsMSwwLDAsMCwwLDJoNHY0YTEsMSwwLDEsMCwyLDB2LTRoNGExLDEsMCwwLDAsMC0yWiIvPjxwYXRoIGNsYXNzPSJjbHMtNSIgZD0iTTcyLjY3LDc2aC00VjcyYTEsMSwwLDAsMC0yLDB2NGgtNGExLDEsMCwwLDAsMCwyaDR2NGExLDEsMCwwLDAsMiwwVjc4aDRhMSwxLDAsMSwwLDAtMloiLz48cGF0aCBjbGFzcz0iY2xzLTUiIGQ9Ik0yMDYsMTA1LjExYTYsNiwwLDEsMSw2LTZBNiw2LDAsMCwxLDIwNiwxMDUuMTFabTAtMTBhNCw0LDAsMSwwLDQsNEE0LDQsMCwwLDAsMjA2LDk1LjExWiIvPjxwYXRoIGNsYXNzPSJjbHMtNSIgZD0iTTUzLDEzN0g1MC40MWwxLjgzLTEuODNhMSwxLDAsMCwwLTEuNDEtMS40MUw0OSwxMzUuNTlWMTMzYTEsMSwwLDAsMC0yLDB2Mi41OWwtMS44My0xLjgzYTEsMSwwLDAsMC0xLjQxLDEuNDFMNDUuNTksMTM3SDQzYTEsMSwwLDAsMCwwLDJoMi41OWwtMS44MywxLjgzYTEsMSwwLDAsMCwxLjQxLDEuNDFMNDcsMTQwLjQxVjE0M2ExLDEsMCwwLDAsMiwwdi0yLjU5bDEuODMsMS44M2ExLDEsMCwwLDAsMS40MS0xLjQxTDUwLjQxLDEzOUg1M2ExLDEsMCwwLDAsMC0yWiIvPjwvc3ZnPg==;fontSize=20;" vertex="1" parent="1">
          <mxGeometry x="620" y="197.5" width="130" height="130" as="geometry" />
        </mxCell>
        <mxCell id="wSd2zqa3R8kVobw-JEVB-28" value="" style="endArrow=classic;html=1;rounded=0;fontSize=20;exitX=1;exitY=0.5;exitDx=0;exitDy=0;entryX=0;entryY=0.25;entryDx=0;entryDy=0;" edge="1" parent="1" source="wSd2zqa3R8kVobw-JEVB-14" target="wSd2zqa3R8kVobw-JEVB-26">
          <mxGeometry width="50" height="50" relative="1" as="geometry">
            <mxPoint x="550" y="184.75" as="sourcePoint" />
            <mxPoint x="780" y="165.25847457627128" as="targetPoint" />
          </mxGeometry>
        </mxCell>
        <mxCell id="wSd2zqa3R8kVobw-JEVB-30" value="Raw Data" style="rounded=0;whiteSpace=wrap;html=1;labelBackgroundColor=none;sketch=0;fontSize=20;fillColor=#dae8fc;strokeColor=#6c8ebf;" vertex="1" parent="1">
          <mxGeometry x="45" y="30" width="120" height="60" as="geometry" />
        </mxCell>
        <mxCell id="wSd2zqa3R8kVobw-JEVB-33" value="Processed&lt;br&gt;Data" style="rounded=0;whiteSpace=wrap;html=1;labelBackgroundColor=none;sketch=0;fontSize=20;fillColor=#d5e8d4;strokeColor=#82b366;" vertex="1" parent="1">
          <mxGeometry x="360" y="30" width="120" height="60" as="geometry" />
        </mxCell>
        <mxCell id="wSd2zqa3R8kVobw-JEVB-34" value="Similarity&lt;br&gt;Matrix" style="rounded=0;whiteSpace=wrap;html=1;labelBackgroundColor=none;sketch=0;fontSize=20;fillColor=#fff2cc;strokeColor=#d6b656;" vertex="1" parent="1">
          <mxGeometry x="625" y="30" width="120" height="60" as="geometry" />
        </mxCell>
        <mxCell id="wSd2zqa3R8kVobw-JEVB-35" value="Outcome&lt;br&gt;Measures" style="rounded=0;whiteSpace=wrap;html=1;labelBackgroundColor=none;sketch=0;fontSize=20;fillColor=#f8cecc;strokeColor=#b85450;" vertex="1" parent="1">
          <mxGeometry x="940" y="30" width="120" height="60" as="geometry" />
        </mxCell>
        <mxCell id="wSd2zqa3R8kVobw-JEVB-36" value="" style="endArrow=classic;html=1;rounded=0;fontSize=20;exitX=1;exitY=0.5;exitDx=0;exitDy=0;" edge="1" parent="1" source="wSd2zqa3R8kVobw-JEVB-26" target="wSd2zqa3R8kVobw-JEVB-18">
          <mxGeometry width="50" height="50" relative="1" as="geometry">
            <mxPoint x="760" y="260" as="sourcePoint" />
            <mxPoint x="895" y="315" as="targetPoint" />
          </mxGeometry>
        </mxCell>
        <mxCell id="wSd2zqa3R8kVobw-JEVB-37" value="" style="endArrow=classic;html=1;rounded=0;fontSize=20;exitX=1;exitY=0.5;exitDx=0;exitDy=0;" edge="1" parent="1" source="wSd2zqa3R8kVobw-JEVB-23">
          <mxGeometry width="50" height="50" relative="1" as="geometry">
            <mxPoint x="760" y="557" as="sourcePoint" />
            <mxPoint x="939.9999999999995" y="556.9100000000001" as="targetPoint" />
          </mxGeometry>
        </mxCell>
      </root>
    </mxGraphModel>
  </diagram>
</mxfile>
